<?xml version="1.0" encoding="utf-8"?>
<!-- Generator: Adobe Illustrator 19.1.0, SVG Export Plug-In . SVG Version: 6.00 Build 0)  -->
<svg version="1.1" id="Calque_1" xmlns="http://www.w3.org/2000/svg" xmlns:xlink="http://www.w3.org/1999/xlink" x="0px" y="0px"
	 viewBox="0 0 100 100" style="enable-background:new 0 0 100 100;" xml:space="preserve">
<style type="text/css">
	.st0{fill:#F49520;}
</style>
<g>
	<g>
		<path class="st0" d="M50.7,5.1C10.1,3.5-14,61,21.2,85.3c15.4,10.6,38.7,10,54.5,0.7c16.4-9.5,23.6-29.8,19.1-47.9
			c-2.4-9.6-8.1-18.5-16.4-24.1c-9.3-6.2-20.7-7.5-31.6-7.5c-3.2,0-3.2,5,0,5c16.5,0,32.7,4.3,40.5,20.4c7.2,14.9,4.2,34.5-8.4,45.6
			c-12.2,10.7-32,13.1-47,7.6C15.1,79,5.8,61.4,9.8,44c4.4-19.1,20.6-34.6,40.8-33.8C53.9,10.3,53.9,5.3,50.7,5.1L50.7,5.1z"/>
	</g>
</g>
<g>
	<g>
		<path class="st0" d="M43,38.6c-4.1-4,1.3-8.2,5.2-8.5c1.9-0.2,5.5,0,6.7,1.6c2,2.4-0.9,6-2.2,8c-3.4,5.2-6.4,10.5-5.6,16.9
			c0.4,3.1,5.4,3.2,5,0C51,47.3,59.4,43,60.7,34.9c0.9-5.7-4.1-9.1-9.1-9.7c-4.6-0.6-9.8,0.6-12.8,4.3c-3.1,3.8-2.9,9.2,0.6,12.6
			C41.8,44.4,45.3,40.9,43,38.6L43,38.6z"/>
	</g>
</g>
<g>
	<g>
		<path class="st0" d="M48.3,65.2c-2.3,0.9-3.7,3.3-2.7,5.7c1,2.3,3.9,3.2,6.1,2.6c2.3-0.6,3.8-2.9,3.2-5.2c-0.6-2.4-3-3.6-5.3-3.1
			c-1.3,0.3-2.1,1.9-1.7,3.1c0.4,1.4,1.7,2,3.1,1.7c-0.6,0.1-0.8-0.2-0.9-0.8c0-0.1,0.2-0.5,0.1-0.2c-0.3,0.4,0.4-0.4,0.5-0.3
			c0,0-0.7-0.1-0.7-0.1c0,0.2,0.3,0.3,0.4,0.6c0.1,0.4-0.3,0.7-0.6,0.9c1.3-0.5,2.1-1.7,1.7-3.1C51.1,65.7,49.6,64.7,48.3,65.2
			L48.3,65.2z"/>
	</g>
</g>
</svg>
