<?xml version="1.0" encoding="utf-8"?>
<!-- Generator: Adobe Illustrator 19.1.0, SVG Export Plug-In . SVG Version: 6.00 Build 0)  -->
<svg version="1.1" id="Calque_1" xmlns="http://www.w3.org/2000/svg" xmlns:xlink="http://www.w3.org/1999/xlink" x="0px" y="0px"
	 viewBox="0 0 100 100" style="enable-background:new 0 0 100 100;" xml:space="preserve">
<style type="text/css">
	.st0{fill:#F49520;}
</style>
<g>
	<g>
		<path class="st0" d="M20,73.2c1.5-4.7,7.1-6.3,11.5-5.8c4.1,0.4,6.6,3.7,9.7,6C46,77,51.8,78.5,57.8,78c3.2-0.2,3.2-5.2,0-5
			c-6,0.5-10.8-1.3-15.4-5.1c-3-2.5-5.9-5-9.9-5.5c-7.2-0.9-15.1,2.2-17.3,9.4C14.2,74.9,19,76.2,20,73.2L20,73.2z"/>
	</g>
</g>
<g>
	<g>
		<path class="st0" d="M59.2,59c-0.6,4-1.1,8-1.4,12c-0.2,3.2,4.8,3.2,5,0c0.2-3.6,0.6-7.2,1.2-10.7C64.5,57.1,59.7,55.8,59.2,59
			L59.2,59z"/>
	</g>
</g>
<g>
	<g>
		<path class="st0" d="M62.3,76.4c3.7-4.6,7.8-8.8,12.4-12.5c2.5-2-1.1-5.5-3.5-3.5c-4.6,3.7-8.8,7.9-12.4,12.5
			C56.8,75.4,60.3,78.9,62.3,76.4L62.3,76.4z"/>
	</g>
</g>
<g>
	<g>
		<path class="st0" d="M60.6,56.2c-2.4,2.4,0.2,5.4,2.3,6.9c2.7,1.8,5.9,1.9,9,1.5c1.3-0.2,2.1-1.9,1.7-3.1c-0.4-1.4-1.7-2-3.1-1.7
			c-1.3,0.2-2.7,0.2-3.9-0.3c-0.4-0.2-0.9-0.4-1.2-0.7c-0.3-0.2-0.9-1.1-0.9-0.6c-0.2,0.6-0.5,1.2-0.7,1.8c0.1-0.1,0.1-0.1,0.2-0.2
			C66.4,57.5,62.9,54,60.6,56.2L60.6,56.2z"/>
	</g>
</g>
<g>
	<g>
		<path class="st0" d="M64.9,57.4c3.3-9.6,7.2-19,11.8-28c1.5-2.9-2.9-5.4-4.3-2.5c-4.8,9.4-8.9,19.2-12.3,29.2
			C59,59.1,63.9,60.4,64.9,57.4L64.9,57.4z"/>
	</g>
</g>
<g>
	<g>
		<path class="st0" d="M75.4,60.7c2.6-10.7,6.3-21,11.4-30.8c1.5-2.9-2.8-5.4-4.3-2.5c-5.2,10.2-9.2,20.9-11.9,32
			C69.8,62.5,74.6,63.8,75.4,60.7L75.4,60.7z"/>
	</g>
</g>
<g>
	<g>
		<path class="st0" d="M72.9,23c-1.3,6.6,6.8,7.9,11.5,6.6c3.1-0.9,1.8-5.7-1.3-4.8c-0.6,0.2-5.6,0.8-5.3-0.5
			C78.4,21.1,73.6,19.8,72.9,23L72.9,23z"/>
	</g>
</g>
<g>
	<g>
		<path class="st0" d="M76.5,15.1c-1,1.8-2,3.7-2.8,5.6c-0.6,1.2-0.4,2.7,0.9,3.4c1.1,0.6,2.9,0.3,3.4-0.9c0.9-1.9,1.8-3.8,2.8-5.6
			C82.4,14.9,78.1,12.3,76.5,15.1L76.5,15.1z"/>
	</g>
</g>
<g>
	<g>
		<path class="st0" d="M84.9,19.2c-1.2,3.1-2.7,6-4.4,8.9c-1.7,2.8,2.7,5.3,4.3,2.5c1.9-3.2,3.5-6.6,4.9-10.1
			C90.9,17.6,86.1,16.3,84.9,19.2L84.9,19.2z"/>
	</g>
</g>
<g>
	<g>
		<path class="st0" d="M79.4,18.6c1.4-0.3,2.9,0.3,3.4,1.7c0.5,1.3,1.7,2.1,3.1,1.7c1.2-0.3,2.2-1.8,1.7-3.1c-1.5-4-5.4-6.2-9.6-5.2
			C74.9,14.5,76.3,19.4,79.4,18.6L79.4,18.6z"/>
	</g>
</g>
</svg>
