<?xml version="1.0" encoding="utf-8"?>
<!-- Generator: Adobe Illustrator 19.1.0, SVG Export Plug-In . SVG Version: 6.00 Build 0)  -->
<svg version="1.1" id="Calque_1" xmlns="http://www.w3.org/2000/svg" xmlns:xlink="http://www.w3.org/1999/xlink" x="0px" y="0px"
	 viewBox="0 0 100 100" style="enable-background:new 0 0 100 100;" xml:space="preserve">
<style type="text/css">
	.st0{display:none;}
	.st1{display:inline;}
	.st2{fill:#BC5717;}
	.st3{fill:#FFFFFF;}
</style>
<g id="Calque_1_1_" class="st0">
	<g class="st1">
		<g>
			<path class="st2" d="M17.3,91.3C20.1,82.4,23.4,73.6,29,66c5.4-7.4,14.1-15.1,23.8-15.2c9.9,0,16.3,8.9,20.5,16.7
				c4.5,8.4,7,17.6,7.6,27.1c0.2,3.2,5.2,3.2,5,0c-1.1-17.5-10.2-47-31.4-48.7c-10.2-0.8-19.9,6-26.4,13.3
				C20.3,68,15.9,78.9,12.5,90C11.6,93,16.4,94.4,17.3,91.3L17.3,91.3z"/>
		</g>
	</g>
	<g class="st1">
		<g>
			<path class="st2" d="M50.4,8c-11.9-3.2-23.9,6.9-28.1,17.5c-5.3,13.7,6,22.7,18.6,24.7c12.1,1.9,27.2-0.5,36.5-9.1
				c10-9.1,7.3-22.4-2.1-30.9c-12-10.9-33-8.2-47.2-4.1C25,7,26.3,11.9,29.4,11c11.7-3.4,29.1-6.1,40,1c5.3,3.4,10.8,11,9.6,17.6
				c-1.3,6.6-8.3,11.1-14.2,13.2c-10.7,4-26.2,5.1-35.4-2.8C17.4,29.8,37,9.6,49.1,12.8C52.2,13.7,53.5,8.8,50.4,8L50.4,8z"/>
		</g>
	</g>
</g>
<g id="Calque_2">
	<g>
		<g>
			<path class="st2" d="M1.3,26c0,22.6,0,45.3,0,67.9c0,3.2,5,3.2,5,0c0-22.6,0-45.3,0-67.9C6.3,22.8,1.3,22.8,1.3,26L1.3,26z"/>
		</g>
	</g>
	<g>
		<g>
			<path class="st2" d="M4.3,28.5c30.2,0,60.4,0,90.7,0c3.2,0,3.2-5,0-5c-30.2,0-60.4,0-90.7,0C1.1,23.5,1.1,28.5,4.3,28.5L4.3,28.5
				z"/>
		</g>
	</g>
	<g>
		<g>
			<path class="st2" d="M93.4,26.3c0,22.5,0,45.1,0,67.6c0,3.2,5,3.2,5,0c0-22.5,0-45.1,0-67.6C98.4,23.1,93.4,23.1,93.4,26.3
				L93.4,26.3z"/>
		</g>
	</g>
	<g>
		<g>
			<path class="st2" d="M95.9,92.7c-30.7,0-61.4,0-92.1,0c-3.2,0-3.2,5,0,5c30.7,0,61.4,0,92.1,0C99.1,97.7,99.1,92.7,95.9,92.7
				L95.9,92.7z"/>
		</g>
	</g>
	<g>
		<g>
			<path class="st2" d="M2.7,47.1c29.7,0,59.4,0,89.1,0c0.9,0,3.1-1.3,1.2-1.3c-29.7,0-59.4,0-89.1,0C3.1,45.8,0.8,47.1,2.7,47.1
				L2.7,47.1z"/>
		</g>
	</g>
	<g>
		<g>
			<path class="st2" d="M4.8,58.6c29.3,0,58.5,0,87.8,0c0.9,0,3.1-1.4,1.2-1.4c-29.3,0-58.5,0-87.8,0C5.1,57.2,2.9,58.6,4.8,58.6
				L4.8,58.6z"/>
		</g>
	</g>
	<g>
		<g>
			<path class="st2" d="M93.8,68.9c-29.6,0-59.3,0-88.9,0c-1,0-3.1,1.6-1.2,1.6c29.6,0,59.3,0,88.9,0C93.7,70.5,95.7,68.9,93.8,68.9
				L93.8,68.9z"/>
		</g>
	</g>
	<g>
		<g>
			<path class="st2" d="M94.3,80.6c-29.6,0-59.3,0-88.9,0c-1,0-3.1,1.6-1.2,1.6c29.6,0,59.3,0,88.9,0C94.2,82.2,96.3,80.6,94.3,80.6
				L94.3,80.6z"/>
		</g>
	</g>
	<g>
		<g>
			<path class="st2" d="M21.3,27.5c0,21.9,0,43.8,0,65.7c0,1.5,2.9,1.1,2.9-0.2c0-21.9,0-43.8,0-65.7C24.2,25.8,21.3,26.2,21.3,27.5
				L21.3,27.5z"/>
		</g>
	</g>
	<g>
		<g>
			<path class="st2" d="M38.4,28.8c0,21.9,0,43.9,0,65.8c0,0.5,2.9,0.1,2.9-0.8c0-21.9,0-43.9,0-65.8C41.3,27.5,38.4,27.9,38.4,28.8
				L38.4,28.8z"/>
		</g>
	</g>
	<g>
		<g>
			<path class="st2" d="M57,28.7c0,21.8,0,43.7,0,65.5c0,1.3,2.9,0.7,2.9-0.3c0-21.8,0-43.7,0-65.5C59.9,27.1,57,27.7,57,28.7
				L57,28.7z"/>
		</g>
	</g>
	<g>
		<g>
			<path class="st2" d="M75.4,27.6c0,22.5,0,45,0,67.4c0,1.3,2.9,0.7,2.9-0.3c0-22.5,0-45,0-67.4C78.3,26,75.4,26.6,75.4,27.6
				L75.4,27.6z"/>
		</g>
	</g>
	<g>
		<g>
			<path class="st2" d="M6.8,31c29.1,0,58.2,0,87.3,0c3.2,0,3.2-5,0-5C65,26,35.9,26,6.8,26C3.6,26,3.6,31,6.8,31L6.8,31z"/>
		</g>
	</g>
	<g>
		<g>
			<path class="st2" d="M4.9,35.3c29.3,0,58.5,0,87.8,0c3.2,0,3.2-5,0-5c-29.3,0-58.5,0-87.8,0C1.7,30.3,1.7,35.3,4.9,35.3L4.9,35.3
				z"/>
		</g>
	</g>
	<g>
		<g>
			<path class="st2" d="M4.9,37.4c29.4,0,58.8,0,88.2,0c3.2,0,3.2-5,0-5c-29.4,0-58.8,0-88.2,0C1.7,32.4,1.7,37.4,4.9,37.4L4.9,37.4
				z"/>
		</g>
	</g>
	<g>
		<path class="st2" d="M22.8,7.1c0,6.1,0,12.2,0,18.4"/>
		<g>
			<path class="st3" d="M17.8,7.1c0,6.1,0,12.2,0,18.4c0,6.4,10,6.4,10,0c0-6.1,0-12.2,0-18.4C27.8,0.7,17.8,0.7,17.8,7.1L17.8,7.1z
				"/>
		</g>
	</g>
	<g>
		<path class="st2" d="M78.6,7.1c0,6.1,0,12.2,0,18.4"/>
		<g>
			<path class="st3" d="M73.6,7.1c0,6.1,0,12.2,0,18.4c0,6.4,10,6.4,10,0c0-6.1,0-12.2,0-18.4C83.6,0.7,73.6,0.7,73.6,7.1L73.6,7.1z
				"/>
		</g>
	</g>
	<g>
		<g>
			<path class="st2" d="M25.2,26.6c0-2.6,0-5.2,0-7.9c0-3.2-5-3.2-5,0c0,2.6,0,5.2,0,7.9C20.2,29.8,25.2,29.8,25.2,26.6L25.2,26.6z"
				/>
		</g>
	</g>
	<g>
		<g>
			<path class="st2" d="M81.1,25.5c0-2.3,0-4.7,0-7c0-3.2-5-3.2-5,0c0,2.3,0,4.7,0,7C76.1,28.7,81.1,28.7,81.1,25.5L81.1,25.5z"/>
		</g>
	</g>
</g>
</svg>
