<?xml version="1.0" encoding="utf-8"?>
<!-- Generator: Adobe Illustrator 19.1.0, SVG Export Plug-In . SVG Version: 6.00 Build 0)  -->
<svg version="1.1" xmlns="http://www.w3.org/2000/svg" xmlns:xlink="http://www.w3.org/1999/xlink" x="0px" y="0px"
	 viewBox="0 0 100 100" style="enable-background:new 0 0 100 100;" xml:space="preserve">
<style type="text/css">
	.st0{display:none;}
	.st1{display:inline;}
	.st2{fill:#BC5717;}
	.st3{fill:#FFFFFF;}
</style>
<g id="Calque_1" class="st0">
	<g class="st1">
		<g>
			<path class="st2" d="M17.3,91.3C20.1,82.4,23.4,73.6,29,66c5.4-7.4,14.1-15.1,23.8-15.2c9.9,0,16.3,8.9,20.5,16.7
				c4.5,8.4,7,17.6,7.6,27.1c0.2,3.2,5.2,3.2,5,0c-1.1-17.5-10.2-47-31.4-48.7c-10.2-0.8-19.9,6-26.4,13.3
				C20.3,68,15.9,78.9,12.5,90C11.6,93,16.4,94.4,17.3,91.3L17.3,91.3z"/>
		</g>
	</g>
	<g class="st1">
		<g>
			<path class="st2" d="M50.4,8c-11.9-3.2-23.9,6.9-28.1,17.5C17,39.2,28.3,48.2,40.9,50.2c12.1,1.9,27.2-0.5,36.5-9.1
				c10-9.1,7.3-22.4-2.1-30.9c-12-10.9-33-8.2-47.2-4.1C25,7,26.3,11.9,29.4,11c11.7-3.4,29.1-6.1,40,1C74.7,15.4,80.2,23,79,29.6
				c-1.3,6.6-8.3,11.1-14.2,13.2c-10.7,4-26.2,5.1-35.4-2.8C17.4,29.8,37,9.6,49.1,12.8C52.2,13.7,53.5,8.8,50.4,8L50.4,8z"/>
		</g>
	</g>
</g>
<g id="Calque_2">
	<g>
		<g>
			<path class="st2" d="M1.3,19.4c0,22.6,0,45.3,0,67.9c0,3.2,5,3.2,5,0c0-22.6,0-45.3,0-67.9C6.3,16.2,1.3,16.2,1.3,19.4L1.3,19.4z
				"/>
		</g>
	</g>
	<g>
		<g>
			<path class="st2" d="M4.3,21.9c30.2,0,60.4,0,90.7,0c3.2,0,3.2-5,0-5c-30.2,0-60.4,0-90.7,0C1.1,16.9,1.1,21.9,4.3,21.9L4.3,21.9
				z"/>
		</g>
	</g>
	<g>
		<g>
			<path class="st2" d="M93.4,19.7c0,22.5,0,45.1,0,67.6c0,3.2,5,3.2,5,0c0-22.5,0-45.1,0-67.6C98.4,16.5,93.4,16.5,93.4,19.7
				L93.4,19.7z"/>
		</g>
	</g>
	<g>
		<g>
			<path class="st2" d="M95.9,86.1c-30.7,0-61.4,0-92.1,0c-3.2,0-3.2,5,0,5c30.7,0,61.4,0,92.1,0C99.1,91.1,99.1,86.1,95.9,86.1
				L95.9,86.1z"/>
		</g>
	</g>
	<g>
		<g>
			<path class="st2" d="M2.7,40.5c29.7,0,59.4,0,89.1,0c0.9,0,3.1-1.3,1.2-1.3c-29.7,0-59.4,0-89.1,0C3.1,39.2,0.8,40.5,2.7,40.5
				L2.7,40.5z"/>
		</g>
	</g>
	<g>
		<g>
			<path class="st2" d="M4.8,52c29.3,0,58.5,0,87.8,0c0.9,0,3.1-1.4,1.2-1.4c-29.3,0-58.5,0-87.8,0C5.1,50.6,2.9,52,4.8,52L4.8,52z"
				/>
		</g>
	</g>
	<g>
		<g>
			<path class="st2" d="M93.8,62.3c-29.6,0-59.3,0-88.9,0c-1,0-3.1,1.6-1.2,1.6c29.6,0,59.3,0,88.9,0C93.7,63.9,95.7,62.3,93.8,62.3
				L93.8,62.3z"/>
		</g>
	</g>
	<g>
		<g>
			<path class="st2" d="M94.3,74c-29.6,0-59.3,0-88.9,0c-1,0-3.1,1.6-1.2,1.6c29.6,0,59.3,0,88.9,0C94.2,75.6,96.3,74,94.3,74
				L94.3,74z"/>
		</g>
	</g>
	<g>
		<g>
			<path class="st2" d="M21.3,20.9c0,21.9,0,43.8,0,65.7c0,1.5,2.9,1.1,2.9-0.2c0-21.9,0-43.8,0-65.7C24.2,19.2,21.3,19.6,21.3,20.9
				L21.3,20.9z"/>
		</g>
	</g>
	<g>
		<g>
			<path class="st2" d="M38.4,22.2c0,21.9,0,43.9,0,65.8c0,0.5,2.9,0.1,2.9-0.8c0-21.9,0-43.9,0-65.8C41.3,20.9,38.4,21.3,38.4,22.2
				L38.4,22.2z"/>
		</g>
	</g>
	<g>
		<g>
			<path class="st2" d="M57,22.1c0,21.8,0,43.7,0,65.5c0,1.3,2.9,0.7,2.9-0.3c0-21.8,0-43.7,0-65.5C59.9,20.5,57,21.1,57,22.1
				L57,22.1z"/>
		</g>
	</g>
	<g>
		<g>
			<path class="st2" d="M75.4,21c0,22.5,0,45,0,67.4c0,1.3,2.9,0.7,2.9-0.3c0-22.5,0-45,0-67.4C78.3,19.4,75.4,20,75.4,21L75.4,21z"
				/>
		</g>
	</g>
	<g>
		<g>
			<path class="st2" d="M6.8,24.4c29.1,0,58.2,0,87.3,0c3.2,0,3.2-5,0-5c-29.1,0-58.2,0-87.3,0C3.6,19.4,3.6,24.4,6.8,24.4L6.8,24.4
				z"/>
		</g>
	</g>
	<g>
		<g>
			<path class="st2" d="M4.9,28.7c29.3,0,58.5,0,87.8,0c3.2,0,3.2-5,0-5c-29.3,0-58.5,0-87.8,0C1.7,23.7,1.7,28.7,4.9,28.7L4.9,28.7
				z"/>
		</g>
	</g>
	<g>
		<g>
			<path class="st2" d="M4.9,30.8c29.4,0,58.8,0,88.2,0c3.2,0,3.2-5,0-5c-29.4,0-58.8,0-88.2,0C1.7,25.8,1.7,30.8,4.9,30.8L4.9,30.8
				z"/>
		</g>
	</g>
	<g>
		<path class="st2" d="M22.8,0.5c0,6.1,0,12.2,0,18.4"/>
		<g>
			<path class="st3" d="M17.8,0.5c0,6.1,0,12.2,0,18.4c0,6.4,10,6.4,10,0c0-6.1,0-12.2,0-18.4C27.8-5.9,17.8-5.9,17.8,0.5L17.8,0.5z
				"/>
		</g>
	</g>
	<g>
		<path class="st2" d="M78.6,0.5c0,6.1,0,12.2,0,18.4"/>
		<g>
			<path class="st3" d="M73.6,0.5c0,6.1,0,12.2,0,18.4c0,6.4,10,6.4,10,0c0-6.1,0-12.2,0-18.4C83.6-5.9,73.6-5.9,73.6,0.5L73.6,0.5z
				"/>
		</g>
	</g>
	<g>
		<g>
			<path class="st2" d="M25.2,20c0-2.6,0-5.2,0-7.9c0-3.2-5-3.2-5,0c0,2.6,0,5.2,0,7.9C20.2,23.2,25.2,23.2,25.2,20L25.2,20z"/>
		</g>
	</g>
	<g>
		<g>
			<path class="st2" d="M81.1,18.9c0-2.3,0-4.7,0-7c0-3.2-5-3.2-5,0c0,2.3,0,4.7,0,7C76.1,22.1,81.1,22.1,81.1,18.9L81.1,18.9z"/>
		</g>
	</g>
</g>
</svg>
