<?xml version="1.0" encoding="utf-8"?>
<!-- Generator: Adobe Illustrator 19.1.0, SVG Export Plug-In . SVG Version: 6.00 Build 0)  -->
<svg version="1.1" id="Calque_1" xmlns="http://www.w3.org/2000/svg" xmlns:xlink="http://www.w3.org/1999/xlink" x="0px" y="0px"
	 viewBox="0 0 100 100" style="enable-background:new 0 0 100 100;" xml:space="preserve">
<style type="text/css">
	.st0{display:none;}
	.st1{display:inline;}
	.st2{fill:#BC5717;}
	.st3{fill:#FFFFFF;}
</style>
<g id="Calque_1_1_" class="st0">
	<g class="st1">
		<g>
			<path class="st2" d="M17.3,91.3C20.1,82.4,23.4,73.6,29,66c5.4-7.4,14.1-15.1,23.8-15.2c9.9,0,16.3,8.9,20.5,16.7
				c4.5,8.4,7,17.6,7.6,27.1c0.2,3.2,5.2,3.2,5,0c-1.1-17.5-10.2-47-31.4-48.7c-10.2-0.8-19.9,6-26.4,13.3
				C20.3,68,15.9,78.9,12.5,90C11.6,93,16.4,94.4,17.3,91.3L17.3,91.3z"/>
		</g>
	</g>
	<g class="st1">
		<g>
			<path class="st2" d="M50.4,8c-11.9-3.2-23.9,6.9-28.1,17.5c-5.3,13.7,6,22.7,18.6,24.7c12.1,1.9,27.2-0.5,36.5-9.1
				c10-9.1,7.3-22.4-2.1-30.9c-12-10.9-33-8.2-47.2-4.1C25,7,26.3,11.9,29.4,11c11.7-3.4,29.1-6.1,40,1c5.3,3.4,10.8,11,9.6,17.6
				c-1.3,6.6-8.3,11.1-14.2,13.2c-10.7,4-26.2,5.1-35.4-2.8C17.4,29.8,37,9.6,49.1,12.8C52.2,13.7,53.5,8.8,50.4,8L50.4,8z"/>
		</g>
	</g>
</g>
<g id="Calque_2">
	<g>
		<g>
			<path class="st2" d="M11.4,25.6c0,18,0,36.1,0,54.1c0,2.5,4,2.5,4,0c0-18,0-36.1,0-54.1C15.3,23,11.4,23,11.4,25.6L11.4,25.6z"/>
		</g>
	</g>
	<g>
		<g>
			<path class="st2" d="M13.7,27.6c24,0,48.1,0,72.2,0c2.5,0,2.5-4,0-4c-24,0-48.1,0-72.2,0C11.2,23.6,11.2,27.6,13.7,27.6
				L13.7,27.6z"/>
		</g>
	</g>
	<g>
		<g>
			<path class="st2" d="M84.7,25.8c0,17.9,0,35.9,0,53.8c0,2.5,4,2.5,4,0c0-17.9,0-35.9,0-53.8C88.7,23.3,84.7,23.3,84.7,25.8
				L84.7,25.8z"/>
		</g>
	</g>
	<g>
		<g>
			<path class="st2" d="M86.7,78.7c-24.4,0-48.9,0-73.3,0c-2.5,0-2.5,4,0,4c24.4,0,48.9,0,73.3,0C89.2,82.7,89.2,78.7,86.7,78.7
				L86.7,78.7z"/>
		</g>
	</g>
	<g>
		<g>
			<path class="st2" d="M12.5,42.4c23.6,0,47.3,0,70.9,0c0.7,0,2.5-1,1-1c-23.6,0-47.3,0-70.9,0C12.8,41.3,11,42.4,12.5,42.4
				L12.5,42.4z"/>
		</g>
	</g>
	<g>
		<g>
			<path class="st2" d="M14.1,51.5c23.3,0,46.6,0,69.9,0c0.7,0,2.5-1.1,1-1.1c-23.3,0-46.6,0-69.9,0C14.4,50.4,12.6,51.5,14.1,51.5
				L14.1,51.5z"/>
		</g>
	</g>
	<g>
		<g>
			<path class="st2" d="M85,59.7c-23.6,0-47.2,0-70.8,0c-0.8,0-2.5,1.3-1,1.3c23.6,0,47.2,0,70.8,0C84.9,61,86.5,59.7,85,59.7
				L85,59.7z"/>
		</g>
	</g>
	<g>
		<g>
			<path class="st2" d="M85.4,69c-23.6,0-47.2,0-70.8,0c-0.8,0-2.5,1.3-1,1.3c23.6,0,47.2,0,70.8,0C85.3,70.3,87,69,85.4,69L85.4,69
				z"/>
		</g>
	</g>
	<g>
		<g>
			<path class="st2" d="M27.3,26.8c0,17.4,0,34.9,0,52.3c0,1.2,2.3,0.9,2.3-0.2c0-17.4,0-34.9,0-52.3C29.6,25.4,27.3,25.7,27.3,26.8
				L27.3,26.8z"/>
		</g>
	</g>
	<g>
		<g>
			<path class="st2" d="M40.9,27.8c0,17.4,0,34.9,0,52.4c0,0.4,2.3,0.1,2.3-0.6c0-17.4,0-34.9,0-52.4C43.2,26.8,40.9,27.1,40.9,27.8
				L40.9,27.8z"/>
		</g>
	</g>
	<g>
		<g>
			<path class="st2" d="M55.7,27.7c0,17.4,0,34.8,0,52.1c0,1,2.3,0.6,2.3-0.2c0-17.4,0-34.8,0-52.1C58,26.5,55.7,26.9,55.7,27.7
				L55.7,27.7z"/>
		</g>
	</g>
	<g>
		<g>
			<path class="st2" d="M70.3,26.9c0,17.9,0,35.8,0,53.7c0,1,2.3,0.6,2.3-0.2c0-17.9,0-35.8,0-53.7C72.6,25.6,70.3,26.1,70.3,26.9
				L70.3,26.9z"/>
		</g>
	</g>
	<g>
		<g>
			<path class="st2" d="M15.7,29.6c23.2,0,46.3,0,69.5,0c2.5,0,2.5-4,0-4c-23.2,0-46.3,0-69.5,0C13.2,25.6,13.2,29.6,15.7,29.6
				L15.7,29.6z"/>
		</g>
	</g>
	<g>
		<g>
			<path class="st2" d="M14.2,33c23.3,0,46.6,0,69.9,0c2.5,0,2.5-4,0-4c-23.3,0-46.6,0-69.9,0C11.7,29,11.7,33,14.2,33L14.2,33z"/>
		</g>
	</g>
	<g>
		<g>
			<path class="st2" d="M14.2,34.7c23.4,0,46.8,0,70.2,0c2.5,0,2.5-4,0-4c-23.4,0-46.8,0-70.2,0C11.7,30.7,11.7,34.7,14.2,34.7
				L14.2,34.7z"/>
		</g>
	</g>
	<g>
		<path class="st2" d="M28.5,10.5c0,4.9,0,9.7,0,14.6"/>
		<g>
			<path class="st3" d="M24.5,10.5c0,4.9,0,9.7,0,14.6c0,5.1,8,5.1,8,0c0-4.9,0-9.7,0-14.6C32.4,5.4,24.5,5.4,24.5,10.5L24.5,10.5z"
				/>
		</g>
	</g>
	<g>
		<path class="st2" d="M72.9,10.5c0,4.9,0,9.7,0,14.6"/>
		<g>
			<path class="st3" d="M68.9,10.5c0,4.9,0,9.7,0,14.6c0,5.1,8,5.1,8,0c0-4.9,0-9.7,0-14.6C76.9,5.4,68.9,5.4,68.9,10.5L68.9,10.5z"
				/>
		</g>
	</g>
	<g>
		<g>
			<path class="st2" d="M30.4,26.1c0-2.1,0-4.1,0-6.3c0-2.5-4-2.5-4,0c0,2.1,0,4.1,0,6.3C26.4,28.6,30.4,28.6,30.4,26.1L30.4,26.1z"
				/>
		</g>
	</g>
	<g>
		<g>
			<path class="st2" d="M74.9,25.2c0-1.8,0-3.7,0-5.6c0-2.5-4-2.5-4,0c0,1.8,0,3.7,0,5.6C70.9,27.7,74.9,27.7,74.9,25.2L74.9,25.2z"
				/>
		</g>
	</g>
</g>
</svg>
