<?xml version="1.0" encoding="utf-8"?>
<!-- Generator: Adobe Illustrator 19.1.0, SVG Export Plug-In . SVG Version: 6.00 Build 0)  -->
<svg version="1.1" id="Calque_1" xmlns="http://www.w3.org/2000/svg" xmlns:xlink="http://www.w3.org/1999/xlink" x="0px" y="0px"
	 viewBox="0 0 100 100" style="enable-background:new 0 0 100 100;" xml:space="preserve">
<style type="text/css">
	.st0{fill:#BD5817;}
	.st1{fill:none;stroke:#BD5817;stroke-miterlimit:10;}
</style>
<g>
	<g>
		<path class="st0" d="M7.8,73.6c-0.9-5.3,3.5-11.9,7.3-15.3C18.9,55,24,53.1,29,53.2C40.1,53.4,45.3,65.3,45.9,75
			c0.2,3.2,5.2,3.2,5,0c-0.9-13.2-8.5-27.5-23.4-26.8C14.7,48.9,0.7,61.2,2.9,74.9C3.5,78.1,8.3,76.8,7.8,73.6L7.8,73.6z"/>
	</g>
</g>
<g>
	<g>
		<path class="st0" d="M14.2,22.7c-7,4.9-10.2,14-5.1,21.5c5.2,7.6,16,8.6,23.9,5c7.7-3.5,11.3-11.8,6.6-19.3
			c-5.1-8.2-16.1-11.6-25.3-10.7c-3.2,0.3-3.2,5.3,0,5c5.5-0.5,11,0.3,15.7,3.3c6,3.7,9.9,11.6,2.6,16.3c-4.8,3.1-11.9,3.5-16.7,0.2
			c-6.3-4.4-5-12.8,0.9-16.9C19.3,25.2,16.8,20.9,14.2,22.7L14.2,22.7z"/>
	</g>
</g>
<g>
	<g>
		<path class="st0" d="M62,70.6C64.9,63,69.2,53.3,79,54.1c9,0.8,14,9.2,14.7,17.4c0.3,3.2,5.3,3.2,5,0c-0.9-10.4-7-20.7-18.2-22.2
			c-13-1.9-19.3,9.5-23.4,19.9C56,72.2,60.8,73.5,62,70.6L62,70.6z"/>
	</g>
</g>
<g>
	<g>
		<path class="st0" d="M74.8,19.3c-10.3,0.8-16.4,10.2-17.1,20C57,49.6,66.1,54.1,75.4,52.3c8.7-1.6,19.5-7.9,18-18.2
			C92,23.9,81.3,20,72.2,20.4c-3.2,0.1-3.2,5.1,0,5c6.2-0.2,13.8,1.3,16,8.1c2.2,7-5.4,11.5-11,13.2c-6.1,1.9-14.8,1.5-14.5-6.8
			c0.2-7,4.5-15,12.1-15.7C78,24,78,19,74.8,19.3L74.8,19.3z"/>
	</g>
</g>
<g>
	<g>
		<path class="st0" d="M66,59.7c-1.8,1.7-3.2,3.5-4.3,5.7c-1.3,2.4,2,5.3,3.9,3c2.2-2.6,4.6-4.9,7.2-7.1c-1.3-1-2.6-2-3.9-3
			c-1.5,2.1-3,4.3-4.6,6.4c-1.8,2.4,1.9,4.8,3.9,3c3-2.7,6-5.4,8.9-8.1c-1.2-1.2-2.4-2.4-3.5-3.5c-1.6,1.8-3.4,3.4-5.2,4.9
			c1.2,1.2,2.4,2.4,3.5,3.5c2.1-1.7,4.2-3.1,6.6-4.4c-1-1.3-2-2.6-3-3.9c-1,1.1-2.1,1.9-3.5,2.4c1,1.3,2,2.6,3,3.9
			c1.5-1.4,3-2.7,4.6-4c2.4-1.9-0.7-5-3-3.9c0.7-0.3-5.3,2.3-5.2,2.4c0.4,0.9,0.8,1.9,1.1,2.8c0.8-1.4,1.9-2.5,3.4-3.2
			c-1-1.3-2-2.6-3-3.9c-1.2,1.1-2.2,2.3-3.2,3.6c-1.3,1.8,0.9,4.3,2.8,3.7c1-0.3,6.2-1.9,6-2.2c-0.2-0.8-0.4-1.6-0.6-2.4
			c-0.2,1.1-2.7,3.4-3.5,4.2c-1.9,2.1,0.5,5.3,3,3.9c2.1-1.2,4.3-2.3,6.5-3.4c-1.1-1.1-2.3-2.3-3.4-3.4c-1.1,1.8-2.2,3-3.7,4.4
			c-2,2,0.6,5.4,3,3.9c2-1.2,3.6-2.1,5.9-2.7c-0.8-1.4-1.6-2.8-2.4-4.2c-1.3,1.6-2.7,3.1-4,4.7c-1.8,2.1,0.4,5.4,3,3.9
			c1.9-1.1,3.7-1.9,5.8-2.7c-1-1-2.1-2.1-3.1-3.1c-0.3,1.2-0.9,2.2-1.8,3c-2,2,0.5,5.4,3,3.9c1.6-1,3.1-2,4.6-3.1
			c-1-1.3-2-2.6-3-3.9c-1.1,1.3-2.2,2.5-3.5,3.6c-2.2,2,0.6,5.2,3,3.9c1.2-0.6,2.4-1.2,3.6-1.9c-1.2-0.9-2.4-1.9-3.7-2.8
			c-0.4,0.7-0.9,1.4-1.3,2.2c-1.4,1.8,0.9,4.2,2.8,3.7c0.5-0.1,0.9-0.3,1.4-0.4c-1-1-2.1-2.1-3.1-3.1c0,0.1,0,0.3,0,0.4
			c1.3,1,2.6,2,3.9,3c1.8-2.3,3.6-6.3,1.6-9.1c-2.2-3.1-5.5-1.1-8.4-0.9c0.7,1.3,1.4,2.5,2.2,3.8c1.1-1.8,2.3-3.7,3.4-5.5
			c1.2-1.9-0.8-4.2-2.8-3.7c-2.5,0.7-4.8,1.6-7.1,2.7c1,1.3,2,2.6,3,3.9c0.7-0.8,1.4-1.5,2.1-2.3c1.6-1.7,0.1-5-2.4-4.2
			c-1.6,0.5-3.1,0.9-4.7,1.3c1,1,2.1,2.1,3.1,3.1c0.1-0.3,0.2-0.6,0.3-0.9c0.6-2.1-1.8-4-3.7-2.8c-1.1,0.7-2.1,1.3-3.2,2
			c-2.7,1.7-0.2,6,2.5,4.3c1.1-0.7,2.1-1.3,3.2-2c-1.2-0.9-2.4-1.9-3.7-2.8c-0.1,0.3-0.2,0.6-0.3,0.9c-0.6,2,1.3,3.4,3.1,3.1
			c1.7-0.3,3.1-0.7,4.7-1.3c-0.8-1.4-1.6-2.8-2.4-4.2c-0.7,0.8-1.4,1.5-2.1,2.3c-2,2.1,0.5,5.2,3,3.9c2-1,3.8-1.6,5.9-2.2
			c-0.9-1.2-1.9-2.4-2.8-3.7c-1.1,1.8-2.3,3.7-3.4,5.5c-1,1.6,0.3,3.9,2.2,3.8c0.6,0,2.5-0.6,3.1-0.5c0.9-0.6,1.1-0.3,0.6,0.7
			c0,0.9-0.4,1.7-1.1,2.3c-1.7,2.2,2.2,5.3,3.9,3c0.7-0.9,1.1-1.5,1.3-2.6c0.3-1.8-1.1-3.6-3.1-3.1c-0.5,0.1-0.9,0.3-1.4,0.4
			c0.9,1.2,1.9,2.4,2.8,3.7c1-1.4,1.2-1.8,1.8-3.3c0.9-2.2-1.9-3.7-3.7-2.8c-1.2,0.6-2.4,1.2-3.6,1.9c1,1.3,2,2.6,3,3.9
			c1.3-1.2,2.4-2.3,3.5-3.6c1.7-2-0.6-5.7-3-3.9c-1.5,1.1-3,2.1-4.6,3.1c1,1.3,2,2.6,3,3.9c1.5-1.6,2.5-3.2,3.1-5.2
			c0.6-1.7-1.3-3.7-3.1-3.1c-2.4,0.9-4.7,1.9-7,3.2c1,1.3,2,2.6,3,3.9c1.3-1.6,2.7-3.1,4-4.7c1.5-1.8,0.1-4.9-2.4-4.2
			c-2.6,0.7-4.8,1.9-7.1,3.2c1,1.3,2,2.6,3,3.9c1.7-1.7,3.2-3.3,4.4-5.4c1.4-2.3-1.3-4.5-3.4-3.4c-2.2,1.1-4.3,2.2-6.5,3.4
			c1,1.3,2,2.6,3,3.9c1.9-2.1,6.6-5.7,4.1-8.9c-2.4-3.1-8.1,0-10.8,0.9c0.9,1.2,1.9,2.4,2.8,3.7c0.7-1,1.5-1.8,2.4-2.6
			c2-2-0.6-5.4-3-3.9c-2.3,1.4-5,3.4-5.7,6.2c-0.3,1.1,0.2,2.2,1.1,2.8c2.9,1.8,7.5-1.1,10.2-2.4c-1-1.3-2-2.6-3-3.9
			c-1.6,1.3-3.1,2.6-4.6,4c-2.1,2,0.6,5.2,3,3.9c1.7-0.9,3.1-1.9,4.5-3.2c2.1-2-0.6-5.2-3-3.9c-2.8,1.4-5.3,3.2-7.6,5.1
			c-2.5,2.1,1.1,5.5,3.5,3.5c1.9-1.5,3.6-3.1,5.2-4.9c2.2-2.4-1.2-5.7-3.5-3.5c-3,2.7-6,5.4-8.9,8.1c1.3,1,2.6,2,3.9,3
			c1.6-2.1,3.1-4.2,4.6-6.4c1.7-2.5-1.9-4.8-3.9-3c-2.6,2.2-4.9,4.6-7.2,7.1c1.3,1,2.6,2,3.9,3c1-1.8,2.1-3.3,3.5-4.7
			C71.9,61.1,68.4,57.5,66,59.7L66,59.7z"/>
	</g>
</g>
<path class="st1" d="M19.6,36.1c0.1-0.3-0.4-0.4-0.6-0.2c-0.2,0.2-0.1,0.6,0,0.8c0.8,2.1,2.7,3.8,4.9,4.3s4.7-0.1,6.3-1.6"/>
<path class="st1" d="M67.5,39.1c1,1.3,2.7,2.1,4.3,1.9c1.7-0.2,3.2-1.5,3.8-3.1c-0.2-0.2-0.4,0.2-0.4,0.5c0,1.4,0,2.8,0,4.1
	c0,0.5,0,1-0.3,1.4c-0.2,0.2-0.4,0.4-0.7,0.5c-1.2,0.5-2.7,0.4-3.8-0.3s-2.6-3.4-2.7-4.7"/>
<g>
	<g>
		<path class="st0" d="M9.5,73.4c1.4-2.5,2.8-4.8,4.6-7c-1.3-1-2.6-2-3.9-3c-1,1.4-2,2.8-3,4.3c1.4,0.8,2.9,1.7,4.3,2.5
			c2.4-4.3,5.3-8.1,8.6-11.8c-1.4-0.8-2.8-1.6-4.2-2.4c-0.9,2.9-3.2,5.2-5.1,7.5c1.2,1.2,2.4,2.4,3.5,3.5c2.6-3.2,5.4-6.1,8.5-8.8
			c-1.3-1-2.6-2-3.9-3c-2.4,3.9-5.4,7.4-8.2,11c-1.7,2.3,2,5.1,3.9,3c3.7-4.1,7.3-8.4,11.5-12c-1.3-1-2.6-2-3.9-3
			c-2.7,4.4-5.6,8.6-8.7,12.7c1.4,0.8,2.9,1.7,4.3,2.5c3.5-4.9,7.1-9.8,11.3-14.2c-1.2-1.2-2.4-2.4-3.5-3.5c-2.7,3.5-5.5,7-8.2,10.5
			c-1.9,2.5,1.2,5.9,3.5,3.5c3.1-3.2,6.2-6.2,9.8-8.8c-1.2-0.9-2.4-1.9-3.7-2.8c-1.2,3.9-6.3,8.1-9,10.9c1.2,1.2,2.4,2.4,3.5,3.5
			c4-4.2,8-8.4,12.6-11.9c-1-1.3-2-2.6-3-3.9C27.6,56.4,24,60.2,20.3,64c1.2,1.2,2.4,2.4,3.5,3.5c3.5-3.9,7.1-7.8,11.4-10.9
			c-1-1.3-2-2.6-3-3.9c-2.9,3.6-5.9,7.1-8.8,10.7c-2,2.5,1.1,5.7,3.5,3.5c3.6-3.3,7.2-6.6,10.7-9.8c-1.2-1.2-2.4-2.4-3.5-3.5
			c-3.1,3.8-6.1,7.6-9.2,11.4c-2,2.5,1.2,5.8,3.5,3.5c3.4-3.3,6.8-6.6,10.2-9.9c-1.4-0.4-2.8-0.7-4.2-1.1c-0.1-0.7-3.4,3.4-3.8,3.8
			c-1.4,1.8-2.8,3.5-4.2,5.3c-2,2.5,1,5.6,3.5,3.5c3.9-3.3,7-7.5,11.1-10.5c-1.2-0.9-2.4-1.9-3.7-2.8c-1.2,3.4-5.2,7.1-7.4,9.9
			c-1.8,2.3,2,5,3.9,3c2.6-2.7,5.2-5.3,8-7.8c-1.3-1-2.6-2-3.9-3c-2.7,3.6-5.5,7.1-8.2,10.7c-1.8,2.3,2,5,3.9,3
			c2.9-2.9,5.8-5.8,8.9-8.5c-1.4-0.8-2.8-1.6-4.2-2.4c-1.5,3.8-4.9,7.4-7.3,10.7c-1.7,2.4,2,5,3.9,3c2.4-2.4,4.8-4.7,7.3-7.1
			c-1.4-0.4-2.8-0.7-4.2-1.1c-0.4-1.8-0.5,0-1.2,1.2c-0.7,1.2-1.5,2.4-2.2,3.6c-1.5,2.4,2.1,5.2,3.9,3c1.6-1.9,3.3-4.3,5.5-5.5
			c-1.1-1.1-2.3-2.3-3.4-3.4c-1.7,2.5-3.4,5-5.1,7.5c-1.6,2.3,2.1,5.2,3.9,3c0.9-1.1,3.3-5.2,4.7-5.5c-0.9-1.2-1.9-2.4-2.8-3.7
			c-1.6,2.7-3.2,5.4-4.8,8.1c-1.4,2.4,2,5.2,3.9,3c1.4-1.6,2.9-3.3,4.3-4.9c-1.3-1-2.6-2-3.9-3c-0.4,0.9-0.9,1.6-1.6,2.2
			c1.3,1,2.6,2,3.9,3c0.6-0.7,1.2-1.4,1.8-2c-1.2-0.9-2.4-1.9-3.7-2.8c-0.2,1.3-0.7,2.6-1.4,3.7c-1.6,2.9,2.5,5.1,4.3,2.5
			c1-1.4,2.1-2.8,3.1-4.2c-1.4-0.8-2.9-1.7-4.3-2.5c-0.7,1.6-1.4,2.8-2.6,4.1c1.4,0.8,2.8,1.6,4.2,2.4c0.6-2.8,1.7-5.2,1.6-8.1
			c-0.1-1.8-1.5-2.7-3.2-2.4c-2.2,0.3-3.7,2.9-5.1,4.4c1.4,0.8,2.8,1.6,4.2,2.4c0.7-3.4,2.4-6.3,2.5-9.9c0.1-2.1-2.2-2.9-3.8-2.2
			c-3.4,1.6-5,6.5-7.4,9.2c1.4,0.6,2.8,1.2,4.3,1.8c0-1.8,3.3-5.8,4.4-7.4c1.6-2.3-2.1-5.2-3.9-3c-3.4,4.1-6.8,8.1-10.4,12.1
			c1.4,0.8,2.8,1.6,4.2,2.4c0.7-3.1,3.9-6.4,5.8-8.7c2-2.4-1.3-5.9-3.5-3.5c-2.5,2.6-5,5.7-8.2,7.5c1.3,0.7,2.5,1.4,3.8,2.2
			c-0.2-1.6,2.4-4.6,3.4-6c1.6-2.3-2.1-5.2-3.9-3c-2.6,3.2-5.1,6.8-8.3,9.5c1.3,1,2.6,2,3.9,3c1.8-3.4,3.9-6.5,6.2-9.6
			c1.5-2-1.4-4.8-3.4-3.4c-3.5,2.3-6.3,5.6-9.3,8.5c1.4,0.8,2.8,1.6,4.2,2.4c0.5-2.7,3.2-5.5,4.8-7.7c1.7-2.3-2.2-5.3-3.9-3
			c-2.4,3.1-4.8,6.1-7.3,9.2c1.3,1,2.6,2,3.9,3c1.5-2.9,2.9-5.8,4.4-8.6c1.2-2.4-1.9-5.2-3.9-3c-2.6,2.8-5.2,5.6-7.8,8.3
			c1.3,1,2.6,2,3.9,3c1.8-2.7,3.5-5.5,5.3-8.2c1.6-2.4-1.9-5-3.9-3c-2.5,2.4-5,4.9-7.5,7.3c1.3,1,2.6,2,3.9,3c1-2.2,2.1-4.2,3.5-6.2
			c1.6-2.3-2.1-5.2-3.9-3c-1.8,2-3.7,4-5.6,5.8c1.4,0.8,2.8,1.6,4.2,2.4c0.5-1.4,1.3-2.6,2.3-3.7c-1.3-1-2.6-2-3.9-3
			c-0.8,1.3-1.7,2.5-2.8,3.6c-2.1,2.4,1.4,6,3.5,3.5c1.3-1.5,2.5-3,3.6-4.6c1.6-2.3-2.1-5.2-3.9-3C10,69.1,8.9,70.9,8,73.2
			c-1,2.5,2.5,4,4.2,2.4c2-1.9,3.8-3.8,5.6-5.8c-1.3-1-2.6-2-3.9-3c-1.4,2-2.5,3.9-3.5,6.2c-1.1,2.5,1.8,5.1,3.9,3
			c2.5-2.4,5-4.9,7.5-7.3c-1.3-1-2.6-2-3.9-3c-1.8,2.7-3.5,5.5-5.3,8.2c-1.5,2.4,2,5.1,3.9,3c2.6-2.8,5.2-5.6,7.8-8.3
			c-1.3-1-2.6-2-3.9-3c-1.5,2.9-2.9,5.8-4.4,8.6c-1.2,2.4,2.1,5.4,3.9,3c2.4-3.1,4.8-6.1,7.3-9.2c-1.3-1-2.6-2-3.9-3
			c-1.9,2.6-4.7,5.6-5.3,8.9c-0.4,2.4,2.3,4.3,4.2,2.4c2.6-2.6,5.2-5.7,8.3-7.7c-1.1-1.1-2.3-2.3-3.4-3.4c-2.3,3.1-4.3,6.3-6.2,9.6
			c-1.4,2.6,1.8,4.8,3.9,3c3.2-2.6,5.7-6.3,8.3-9.5c-1.3-1-2.6-2-3.9-3c-1.6,2.4-4.4,5.4-4,8.5c0.2,1.8,2,3.2,3.8,2.2
			c3.6-2,6.4-5.3,9.2-8.3c-1.2-1.2-2.4-2.4-3.5-3.5c-2.6,3.1-6.2,6.8-7.1,10.9c-0.5,2.3,2.4,4.4,4.2,2.4c3.6-3.9,7-8,10.4-12.1
			c-1.3-1-2.6-2-3.9-3c-1.9,2.8-5.1,6.4-5.1,9.9c0,2.1,2.8,3.4,4.3,1.8c1.9-2.1,4-7.3,6.4-8.4c-1.3-0.7-2.5-1.4-3.8-2.2
			c-0.2,3-1.7,5.7-2.4,8.6c-0.5,2.3,2.4,4.4,4.2,2.4c0.6-0.7,2.5-3,2.9-3.1c-1.1-0.8-2.1-1.6-3.2-2.4c0.1,2.4-0.9,4.4-1.4,6.7
			c-0.5,2.2,2.4,4.5,4.2,2.4c1.4-1.6,2.5-3.2,3.4-5.1c1.3-2.9-2.4-5.1-4.3-2.5c-1,1.4-2.1,2.8-3.1,4.2c1.4,0.8,2.9,1.7,4.3,2.5
			c0.9-1.6,1.5-3.1,1.9-4.9c0.5-2-1.8-4.1-3.7-2.8C41,70.5,40,71.6,39,73.3c-1.4,2.4,1.9,5.1,3.9,3c1-1,1.7-2,2.4-3.2
			c1.3-2.4-2-5.2-3.9-3c-1.4,1.6-2.9,3.3-4.3,4.9c1.3,1,2.6,2,3.9,3c1.6-2.7,3.2-5.4,4.8-8.1c1.1-1.9-0.7-4.2-2.8-3.7
			c-3,0.7-5,4.6-6.9,6.8c1.3,1,2.6,2,3.9,3c1.7-2.5,3.4-5,5.1-7.5c1.5-2.2-1.4-4.5-3.4-3.4c-2.7,1.4-4.6,4-6.5,6.3
			c1.3,1,2.6,2,3.9,3c1.6-2.5,4.6-5.6,4-8.7c-0.4-1.9-2.9-2.4-4.2-1.1c-2.4,2.4-4.8,4.7-7.3,7.1c1.3,1,2.6,2,3.9,3
			c2.7-3.8,6.2-7.5,7.8-11.9c1-2.5-2.5-3.9-4.2-2.4c-3.1,2.7-6,5.6-8.9,8.5c1.3,1,2.6,2,3.9,3c2.7-3.6,5.5-7.1,8.2-10.7
			c1.8-2.4-1.9-4.8-3.9-3c-2.8,2.5-5.4,5.1-8,7.8c1.3,1,2.6,2,3.9,3c2.7-3.4,6.5-7,7.9-11.1c0.7-2-1.9-4.1-3.7-2.8
			c-4.5,3.3-7.9,7.7-12.1,11.3c1.2,1.2,2.4,2.4,3.5,3.5c2.6-3.3,5.3-6.5,7.9-9.8c1.1-1.5,1.7-2.2,1.4-4.1c-0.3-1.9-2.9-2.3-4.2-1.1
			c-3.4,3.3-6.8,6.6-10.2,9.9c1.2,1.2,2.4,2.4,3.5,3.5c3.1-3.8,6.1-7.6,9.2-11.4c2-2.5-1.1-5.8-3.5-3.5c-3.6,3.3-7.2,6.6-10.7,9.8
			c1.2,1.2,2.4,2.4,3.5,3.5c2.9-3.6,5.9-7.1,8.8-10.7c1.7-2-0.5-5.7-3-3.9c-4.7,3.4-8.6,7.4-12.4,11.7c-2.1,2.4,1.3,5.9,3.5,3.5
			c3.6-3.8,7.3-7.6,10.9-11.4c1.9-2-0.7-5.7-3-3.9c-5,3.7-9.4,8.1-13.7,12.6c-2.2,2.3,1.3,5.8,3.5,3.5c3.6-3.7,8.8-8,10.3-13.1
			c0.6-2-1.9-4.1-3.7-2.8c-4,2.8-7.4,6.1-10.9,9.6c1.2,1.2,2.4,2.4,3.5,3.5c2.7-3.5,5.5-7,8.2-10.5c1.9-2.5-1.2-5.9-3.5-3.5
			c-4.5,4.7-8.3,9.9-12.1,15.2c-1.9,2.6,2.4,5,4.3,2.5c3.1-4.1,6-8.3,8.7-12.7c1.5-2.5-1.9-4.8-3.9-3c-4.2,3.6-7.7,8-11.5,12
			c1.3,1,2.6,2,3.9,3c2.8-3.6,5.7-7.2,8.2-11c1.6-2.5-1.9-4.8-3.9-3c-3.2,2.7-6,5.6-8.5,8.8c-2,2.5,1.5,6,3.5,3.5
			c2.5-3,5.2-6,6.4-9.8c0.7-2.4-2.5-4.3-4.2-2.4c-3.6,3.9-6.7,8.1-9.4,12.8c-1.6,2.8,2.5,5.1,4.3,2.5c1-1.4,2-2.8,3-4.3
			c1.6-2.3-2.2-5.3-3.9-3c-2,2.6-3.8,5.2-5.4,8C3.6,73.7,8,76.2,9.5,73.4L9.5,73.4z"/>
	</g>
</g>
<g>
	<g>
		<path class="st0" d="M63.9,64.7c-1.4,2-2.5,3.8-2.7,6.2c-0.1,2.2,2.8,3.3,4.3,1.8c2.5-2.6,4.9-5.1,7.4-7.7c-1.3-1-2.6-2-3.9-3
			c-1.6,2.8-3.2,5.5-4.8,8.3c-1.3,2.3,1.2,4.4,3.4,3.4c3.4-1.6,6.3-6.2,8.8-8.9c-1.3-1-2.6-2-3.9-3c-1.6,2.3-3.1,4.5-4.3,7
			c-1.3,2.6,1.7,4.8,3.9,3c2.9-2.3,4.8-5.7,7.9-7.8c-1.2-0.9-2.4-1.9-3.7-2.8c-0.9,3.1-3.3,6.1-4.7,9c-1.2,2.5,1.8,5.1,3.9,3
			c2.5-2.5,4.3-5.7,7.2-7.9c-1.1-1.1-2.3-2.3-3.4-3.4c-1.5,3-3.1,5.9-4.6,8.9c-1,2,1.3,5.1,3.4,3.4c3-2.3,5.2-5.6,7.5-8.5
			c-1.2,0-2.4,0-3.5,0c0.1,0.1,0.1,0.2,0.2,0.2c-0.2-0.8-0.4-1.6-0.6-2.4c-0.3,2.1-1.8,4.5-2.6,6.5c-1,2.4,2.6,4.1,4.2,2.4
			c1.5-1.6,3-3.2,4.5-4.8c-1.4-0.6-2.8-1.2-4.3-1.8c0.2,1.7-1.6,4.5-2.3,6c-1,2.4,1.9,5.4,3.9,3c1.6-1.8,3.1-3.6,4.7-5.5
			c-1.4-0.8-2.8-1.6-4.2-2.4c-0.5,1.2-1,2.3-1.5,3.5c-1.1,2.4,1.9,5.3,3.9,3c1.4-1.6,2.8-3.2,4.2-4.8c-1.4-0.8-2.8-1.6-4.2-2.4
			c-0.5,2-1.5,3.8-2.5,5.6c-1.3,2.4,2.1,5.4,3.9,3c1.3-1.6,2.4-3.1,4.2-4.4c-1.2-0.9-2.4-1.9-3.7-2.8c-0.4,1.3-1,2.4-1.9,3.5
			c-1.7,2.5,1.9,4.8,3.9,3c0.7-0.6,1.4-1.2,2.1-1.9c2.4-2.1-1.1-5.6-3.5-3.5c-0.7,0.6-1.4,1.2-2.1,1.9c1.3,1,2.6,2,3.9,3
			c1-1.5,1.7-3,2.4-4.7c0.7-2-1.9-4.1-3.7-2.8c-2,1.5-3.6,3.1-5.2,5.1c1.3,1,2.6,2,3.9,3c1.2-2.2,2.5-4.3,3-6.8
			c0.5-2.3-2.4-4.4-4.2-2.4c-1.4,1.6-2.8,3.2-4.2,4.8c1.3,1,2.6,2,3.9,3c0.7-1.5,1.4-3.1,2-4.6c0.9-2.3-2.6-4.3-4.2-2.4
			c-1.6,1.8-3.1,3.6-4.7,5.5c1.3,1,2.6,2,3.9,3c1.1-2.5,3.3-5.7,2.9-8.6c-0.3-2-2.6-3.5-4.3-1.8c-1.5,1.6-3,3.2-4.5,4.8
			c1.4,0.8,2.8,1.6,4.2,2.4c1-2.5,4-6.6,1.7-9.1c-0.8-0.9-2.7-1-3.5,0c-2,2.5-3.9,5.8-6.5,7.7c1.1,1.1,2.3,2.3,3.4,3.4
			c1.5-3,3.1-5.9,4.6-8.9c1-2-1.3-5-3.4-3.4c-3.3,2.4-5.3,5.8-8.2,8.7c1.3,1,2.6,2,3.9,3c1.6-3.4,4.2-6.6,5.2-10.2
			c0.6-2-1.8-4.1-3.7-2.8c-3.4,2.4-5.7,6-8.9,8.6c1.3,1,2.6,2,3.9,3c1.2-2.5,2.7-4.7,4.3-7c1.6-2.3-2-5.1-3.9-3
			c-2,2.2-5.1,6.9-7.8,8.2c1.1,1.1,2.3,2.3,3.4,3.4c1.6-2.8,3.2-5.5,4.8-8.3c1.4-2.4-1.9-5.1-3.9-3c-2.5,2.6-4.9,5.1-7.4,7.7
			c1.4,0.6,2.8,1.2,4.3,1.8c0.1-1.2,1.4-2.8,2-3.7C70.1,64.6,65.7,62.1,63.9,64.7L63.9,64.7z"/>
	</g>
</g>
<path class="st1" d="M21.7,31.1c0.8-0.2,1.7,0.1,2.2,0.7"/>
<path class="st1" d="M28.2,33.9c0.4-0.2,0.8-0.2,1.2-0.1c0.3,0,0.6,0.2,0.7,0.5"/>
<path class="st1" d="M67.4,32.4c0.5-0.4,1.1-0.6,1.7-0.7"/>
<path class="st1" d="M74,31.8C74.1,31.8,74,31.8,74,31.8C73.9,31.8,74,31.7,74,31.8c0.5-0.2,1-0.3,1.6-0.3"/>
<g>
	<g>
		<path class="st0" d="M85.3,67.1c1.9-0.2,3.7-0.3,5.6-0.3c3.2-0.1,3.2-5.1,0-5c-1.9,0.1-3.7,0.2-5.6,0.3c-1.3,0.1-2.5,1.1-2.5,2.5
			C82.8,65.8,83.9,67.2,85.3,67.1L85.3,67.1z"/>
	</g>
</g>
</svg>
