<?xml version="1.0" encoding="utf-8"?>
<!-- Generator: Adobe Illustrator 19.1.0, SVG Export Plug-In . SVG Version: 6.00 Build 0)  -->
<svg version="1.1" id="Calque_1" xmlns="http://www.w3.org/2000/svg" xmlns:xlink="http://www.w3.org/1999/xlink" x="0px" y="0px"
	 viewBox="0 0 100 100" style="enable-background:new 0 0 100 100;" xml:space="preserve">
<style type="text/css">
	.st0{fill:#F49520;}
</style>
<g>
	<g>
		<path class="st0" d="M13.4,77.2c0.6-4.8,2.2-14.6,8.3-14.6c2.6,0,2.5,0.3,4,2.1c0.9,1.1,1.8,2.3,2.6,3.6c1.4,2.2,2.5,4.6,3.6,7
			c1.2,3,5.6,0.4,4.3-2.5c-2.3-5.5-8.4-18.7-16.3-16.1C11.8,59.2,9.3,70,8.4,77.2C8,80.4,13,80.3,13.4,77.2L13.4,77.2z"/>
	</g>
</g>
<g>
	<g>
		<path class="st0" d="M18.5,65.7c-0.9,1-1.9,1.8-2.9,2.7c1.3,1,2.6,2,3.9,3c1.2-1.8,2.6-3.4,4.2-4.9c-1.3-1-2.6-2-3.9-3
			c-1.2,1.7-2.6,3.2-4.3,4.4c1.3,0.7,2.5,1.4,3.8,2.2c0.1-1,1.5-2.4,2-3.2c0.9-1.3,1.9-2.7,2.8-4c1.6-2.3-2.1-5.2-3.9-3
			c-1.8,2.1-3.6,4.2-5.4,6.3c1.2,1.2,2.4,2.4,3.5,3.5c1.4-1.7,3-3.2,4.7-4.7c-1.4-0.8-2.8-1.6-4.2-2.4c-0.3,1.4-1.7,2.9-2.5,4.1
			c-1.1,1.5-2.1,3.1-3.2,4.6c-1.6,2.3,2.1,5.2,3.9,3c2.1-2.6,4.4-4.9,6.9-7.1c-1.4-0.6-2.8-1.2-4.3-1.8c0,1.2-1.7,3.1-2.3,4
			c-0.9,1.4-1.7,2.8-2.6,4.2c-1.5,2.4,2,5.1,3.9,3c2.6-2.8,5.2-5.6,8.3-7.9c-1.2-0.5-2.4-1-3.7-1.5c0.2,0.9-2.8,5-3.3,5.7
			c-1.7,2.9,2.4,5,4.3,2.5c1.6-2.1,3.2-5.5,5.5-6.8c-1.2-0.9-2.4-1.9-3.7-2.8c-0.6,3.2-2.9,5.7-3.7,8.9c-0.6,2.3,2.5,4.4,4.2,2.4
			c1.6-1.9,3.2-3.8,4.8-5.8c-1.4-0.8-2.8-1.6-4.2-2.4c-0.5,1.6-1.2,2.9-2.5,4c1.4,0.6,2.8,1.2,4.3,1.8c0-2.2,0-4.4,0-6.6
			c0-1.6,0.2-3.4-0.6-4.9c-1.6-3.3-4.5-1.8-6.8-0.5c-2.8,1.6-0.3,6,2.5,4.3c0.5-0.3,1.2-1,1.8-1.1c-0.6-0.1-1.3-0.2-1.9-0.3
			c0.4,0.2-0.1,7.9-0.1,8.9c0,2.2,2.7,3.2,4.3,1.8c1.8-1.8,3.1-3.8,3.8-6.2c0.7-2.3-2.6-4.5-4.2-2.4c-1.6,2-3.2,3.9-4.8,5.8
			c1.4,0.8,2.8,1.6,4.2,2.4c0.8-3.1,3.1-5.6,3.7-8.9c0.4-2.1-1.7-3.9-3.7-2.8c-3.2,1.8-5.2,5.7-7.3,8.6c1.4,0.8,2.9,1.7,4.3,2.5
			c1.6-2.8,4.7-6.2,3.8-9.6c-0.4-1.4-2.4-2.5-3.7-1.5C21,66.9,18,69.9,15.1,73c1.3,1,2.6,2,3.9,3c1.2-2,2.5-4,3.7-6
			c1-1.5,1.8-2.8,1.8-4.7c0-2.3-2.7-3.2-4.3-1.8c-2.5,2.2-4.8,4.5-6.9,7.1c1.3,1,2.6,2,3.9,3c1.3-1.9,2.6-3.7,3.9-5.6
			c1-1.4,2-2.6,2.3-4.3c0.4-2.5-2.2-4.1-4.2-2.4c-1.7,1.4-3.3,3-4.7,4.7c-2.1,2.4,1.4,6,3.5,3.5c1.8-2.1,3.6-4.2,5.4-6.3
			c-1.3-1-2.6-2-3.9-3c-2,2.9-5.3,6.1-5.5,9.7c-0.1,1.8,2.3,3.3,3.8,2.2c2.4-1.8,4.4-3.8,6.1-6.2c1.7-2.4-1.9-4.9-3.9-3
			c-1.9,1.8-3.5,3.8-5,5.9c-1.7,2.6,1.9,4.6,3.9,3c1.1-0.8,2-1.7,2.9-2.7C24.2,66.8,20.7,63.3,18.5,65.7L18.5,65.7z"/>
	</g>
</g>
<g>
	<g>
		<path class="st0" d="M76.2,69.8c-0.6-1,1-4.9,1.3-6c0.8-2.6,1.8-5.3,3.6-7.4c3.1-3.5,4.1,0.6,4.8,3.3c0.9,3.2,1.5,6.5,1.9,9.8
			c0.4,3.1,5.4,3.2,5,0c-0.7-5.7-2.2-23.6-12.1-19c-3.8,1.7-6,6.1-7.3,9.8c-1.2,3.3-3.4,8.7-1.6,12C73.4,75.2,77.7,72.6,76.2,69.8
			L76.2,69.8z"/>
	</g>
</g>
<g>
	<g>
		<path class="st0" d="M77.9,58c-2.1,2.8-3.6,5.8-4.5,9.2c-0.7,2.8,3.1,4.3,4.6,1.9c1.9-3.1,3.8-6.2,5.7-9.3c-1.5-0.6-3-1.3-4.6-1.9
			c-1.3,3.5-2.6,7-3.8,10.6c-1,2.8,3,4.1,4.6,1.9c2-2.8,3.6-5.9,5.2-9c-1.5-0.6-3-1.3-4.6-1.9c-1,3.4-2.1,6.7-3.1,10.1
			c1.6,0.4,3.2,0.9,4.8,1.3c1.2-4,2.4-8,3.7-12c-1.6-0.2-3.3-0.4-4.9-0.7c-0.1,2.7-0.8,5.3-1.5,7.9c1.6,0.4,3.2,0.9,4.8,1.3
			c0.8-3.1,1.8-6.2,2.8-9.3c-1.6-0.2-3.3-0.4-4.9-0.7c-0.4,4.2-1.5,9.2-0.4,13.3c0.7,2.5,4,2.2,4.8,0c0.9-2.5,1.5-5,2-7.5
			c-1.6-0.2-3.3-0.4-4.9-0.7c-0.2,2.3-0.4,4.6-0.6,6.9c-0.2,2.9,4.2,3.3,4.9,0.7c0.9-3,1.3-6.1,1.4-9.2c0.1-3.2-4.9-3.2-5,0
			c-0.1,1.5-0.3,2.8-0.8,4.1c1.6,0,3.2,0,4.8,0c-1.1-3.3-2.1-6.7-3.2-10c-0.9-2.7-4.8-2.2-4.9,0.7c0,0.8-0.1,1.6-0.1,2.3
			c1.6-0.2,3.3-0.4,4.9-0.7c-0.4-1-0.8-1.9-1.2-2.9c-0.8-2.1-3.2-2.4-4.6-0.6c-0.6,0.8-0.7,1.5-0.9,2.5c-0.4,3.2,4.6,3.2,5,0
			c0.1,0,0.1,0,0.2,0c-1.5-0.2-3-0.4-4.6-0.6c0.4,1,0.8,1.9,1.2,2.9c1,2.5,4.8,2.3,4.9-0.7c0-0.8,0.1-1.6,0.1-2.3
			c-1.6,0.2-3.3,0.4-4.9,0.7c1.1,3.3,2.1,6.7,3.2,10c0.8,2.5,3.9,2.2,4.8,0c0.7-1.8,0.9-3.6,1-5.5c-1.7,0-3.3,0-5,0
			c-0.1,2.7-0.5,5.3-1.2,7.9c1.6,0.2,3.3,0.4,4.9,0.7c0.2-2.3,0.4-4.6,0.6-6.9c0.2-2.8-4.3-3.4-4.9-0.7c-0.5,2.6-1.1,5.1-2,7.5
			c1.6,0,3.2,0,4.8,0c-1-3.5,0.2-8.4,0.5-11.9c0.3-2.9-4.1-3.2-4.9-0.7c-1,3.1-1.9,6.1-2.8,9.3c-0.8,3.1,4,4.4,4.8,1.3
			c0.8-3.1,1.5-6.1,1.7-9.3c0.1-2.9-4.1-3.3-4.9-0.7c-1.2,4-2.4,8-3.7,12c-0.9,3.1,3.9,4.4,4.8,1.3c1-3.4,2.1-6.7,3.1-10.1
			c0.8-2.7-3.3-4.5-4.6-1.9c-1.5,3.1-3.1,6.2-5.2,9c1.5,0.6,3,1.3,4.6,1.9c1.3-3.5,2.6-7,3.8-10.6c1-2.7-3.1-4.3-4.6-1.9
			c-1.9,3.1-3.8,6.2-5.7,9.3c1.5,0.6,3,1.3,4.6,1.9c0.8-3,2.1-5.6,4-8C84.2,57.9,79.9,55.4,77.9,58L77.9,58z"/>
	</g>
</g>
<g>
	<g>
		<path class="st0" d="M82.2,36.5c-4.7-1.7-8.7,3.7-9,7.9c-0.4,5.3,4.3,8.3,9.2,7.6c4.4-0.6,9.5-3.9,9.3-8.9
			c-0.2-5.5-5.9-8-10.8-7.5c-3.2,0.4-3.2,5.4,0,5c1.9-0.2,4.3-0.3,5.4,1.6c1.2,2.1-1.2,3.7-3,4.4c-1.4,0.5-4,1-5-0.6
			c-0.8-1.3,0.8-5.4,2.5-4.8C83.9,42.4,85.2,37.5,82.2,36.5L82.2,36.5z"/>
	</g>
</g>
<g>
	<g>
		<path class="st0" d="M42.4,83c-0.1-4.4,0.4-8.6,1.7-12.8c1.1-3.6,4-11.4,8.3-12.2c7.4-1.5,12.9,17.3,14.5,21.8
			c1.1,3,5.9,1.7,4.8-1.3c-2.7-7.7-8.3-27-19.3-25.5C40.5,54.5,37.2,73.6,37.4,83C37.4,86.2,42.4,86.3,42.4,83L42.4,83z"/>
	</g>
</g>
<g>
	<g>
		<path class="st0" d="M50.5,32.1c-6.9-0.3-11.7,7.4-10.2,13.8c1.5,6.7,8.5,10.8,15.2,8.8c6.2-1.8,11.8-10.1,9.2-16.5
			c-3.1-7.6-12.4-7-18.9-5.1c-3.1,0.9-1.8,5.7,1.3,4.8c3.5-1,8.7-2.5,11.7,0.5c3.3,3.3,0.2,8.8-3.2,10.8c-3.2,1.9-7.4,1-9.5-2.2
			c-2.3-3.5-0.7-10.2,4.4-10C53.7,37.2,53.7,32.2,50.5,32.1L50.5,32.1z"/>
	</g>
</g>
<g>
	<g>
		<path class="st0" d="M49.6,58.2c-1.6,2.5-3.1,5-4.7,7.5c1.4,0.8,2.9,1.7,4.3,2.5c1.6-3,3.4-5.9,5.3-8.7c-1.4-0.8-2.9-1.7-4.3-2.5
			c-2.1,4.1-4.1,8.3-5.9,12.5c-1.2,2.9,2.8,5.4,4.3,2.5c1-1.8,1.7-3.1,3.3-4.6c-1.4-0.8-2.8-1.6-4.2-2.4c-0.9,3.8-1.7,7.7-2.6,11.5
			c-0.7,3.1,3.8,4.4,4.8,1.3c1.1-3.3,2.1-6.6,3.2-9.9c-1.6-0.4-3.2-0.9-4.8-1.3c-1.1,3.9-2.2,7.8-3.3,11.7c1.6,0.2,3.3,0.4,4.9,0.7
			c0.1-2.5,0.2-5,0.1-7.5c0-2.4-3.5-3.6-4.7-1.3c-1.8,3.5-2.8,7.2-3.7,11.1c1.6,0.2,3.3,0.4,4.9,0.7c0.4-3.1,0.8-6.2,1.3-9.4
			c0.4-3-4-3.1-4.9-0.7c-1.3,3.5-1.8,6.8-1.7,10.4c0,2.4,3.5,3.5,4.7,1.3c1.5-2.9,2-6.2,2.8-9.3c-1.6-0.2-3.3-0.4-4.9-0.7
			c0,3.2,0,6.3-0.1,9.5c1.7,0,3.3,0,5,0c-0.1-4.1,0-8.1,0.3-12.2c-1.7,0-3.3,0-5,0c0.2,5.2-0.2,10.7,1.1,15.8
			c0.7,2.8,4.9,2.1,4.9-0.7c0.1-3.9,0-7.9,0.9-11.7c-1.6-0.2-3.3-0.4-4.9-0.7c-0.1,4.3-0.3,8.6-0.4,12.9c1.7,0,3.3,0,5,0
			c0.1-5.7,0.3-11.2,2.1-16.7c-1.6-0.2-3.3-0.4-4.9-0.7c0.6,5.6-0.2,11.1,0.9,16.7c0.6,2.8,4.9,2.1,4.9-0.7c0-5.4,0.1-10.8,0.1-16.2
			c-1.7,0-3.3,0-5,0C49,74,48.2,81.4,50.7,86c1.2,2.3,4.5,1.1,4.7-1.3c0.3-6.1-1.3-12.3,0.4-18.2c-1.6-0.2-3.3-0.4-4.9-0.7
			c0.4,5.6,0.9,11.2,1.7,16.7c0.3,2.5,4.3,3.7,4.9,0.7c1.1-6.1-0.9-12.3,0.2-18.6c-1.6-0.2-3.3-0.4-4.9-0.7c0.1,5.2-0.2,11.1,1.6,16
			c1,2.7,4.7,2.2,4.9-0.7c0.5-5.5-1.4-11.5-2.5-16.9c-1.6,0.4-3.2,0.9-4.8,1.3c1.5,4.2,3.2,8.4,4.9,12.6c1,2.3,5.3,2.4,4.9-0.7
			c-0.8-5.8-3.1-10.8-5.9-15.9c-1.5-2.8-5.8-0.3-4.3,2.5c1.9,3.7,3.9,7.4,6,11.1c1.4,2.5,5.2,0.8,4.6-1.9c-0.9-3.7-3.5-7-3.6-10.8
			c-1.6,0.4-3.1,0.8-4.7,1.3c3,4.4,4.5,9.3,6,14.3c1.6-0.4,3.2-0.9,4.8-1.3C63.1,71.3,62,67.7,61,64c-1.5,0.6-3,1.3-4.6,1.9
			c1.8,3.9,3.3,7.8,4.5,11.9c0.9,3.1,5.5,1.8,4.8-1.3c-0.7-3.1-1.4-6.2-2-9.4c-1.5,0.6-3,1.3-4.6,1.9c1.8,3.2,2.8,6.6,3.7,10.1
			c1.6-0.4,3.2-0.9,4.8-1.3c-1.6-3.7-3.1-7.4-4.7-11c-1.5,0.6-3,1.3-4.6,1.9c2.4,4.6,4.3,9.3,5.4,14.4c1.5-0.6,3-1.3,4.6-1.9
			c-0.9-1.8-1.7-3.6-2.5-5.5c-1.1-2.9-5.8-1.8-4.8,1.3c0.7,2.4,1.3,4.8,1.9,7.2c1.6-0.4,3.2-0.9,4.8-1.3c-1-2.4-2-4.7-3.4-6.9
			c-1.4-2.4-5.4-0.8-4.6,1.9c0.9,3.1,1.6,6.1,2,9.3c1.5-0.6,3-1.3,4.6-1.9c-1.2-2.5-2.5-5-3.9-7.5c-1.5-2.6-5-0.7-4.6,1.9
			c0.4,2.4,1,4.6,1.8,6.9c1,3,5.7,1.8,4.8-1.3c-0.7-2.4-1.4-4.8-2.1-7.2c-0.8-2.8-4.7-2.1-4.9,0.7c-0.2,3.6,0,7,0.5,10.5
			c1.6-0.4,3.2-0.9,4.8-1.3c-1.4-5.4-1.8-11.1-3.3-16.4c-0.4-1.5-1.3-2.3-2-3.5c-1.4-2.3-1.7-5.5-2-8.2c-0.3-2.6-4.2-3.6-4.9-0.7
			c-0.6,2.7-0.1,4.6,1.6,6.9c1.1,1.5,4.2,1.8,4.6-0.6c0.5-3.2,0.1-5.6-0.7-8.8c-1.5,0.6-3,1.3-4.6,1.9c0.8,1.6,1.6,2.7,2.9,3.9
			c1.3,1.3,3.7,0.8,4.2-1.1c0.5-2.2,0.4-3.7-1-5.5c-1.7-2.3-5.1-1-4.6,1.9c0.5,2.5,1.1,4.8,1.9,7.1c1.1,3,5.9,1.7,4.8-1.3
			c-0.8-2.3-1.5-4.7-1.9-7.1c-1.5,0.6-3,1.3-4.6,1.9c0.2,0.6,0.3,1.1,0.5,1.7c1.4-0.4,2.8-0.7,4.2-1.1c-1-0.8-1.7-1.8-2.1-2.9
			c-1.3-2.6-5.3-0.8-4.6,1.9c0.7,2,0.9,4,0.7,6.1c1.5-0.2,3-0.4,4.6-0.6c-0.9-0.8-1.2-1.8-1.1-3.1c-1.6-0.2-3.3-0.4-4.9-0.7
			c0.5,4.2,1.1,8.1,3.3,11.6c1.5,2.4,1.5,5.1,2,7.8c0.6,3.4,1.4,6.7,2.3,10c0.9,3.2,5.3,1.8,4.8-1.3c-0.4-3.1-0.5-6.1-0.3-9.2
			c-1.6,0.2-3.3,0.4-4.9,0.7c0.7,2.4,1.4,4.8,2.1,7.2c1.6-0.4,3.2-0.9,4.8-1.3c-0.8-2.3-1.3-4.6-1.8-6.9c-1.5,0.6-3,1.3-4.6,1.9
			c1.4,2.5,2.7,4.9,3.9,7.5c1.3,2.8,4.9,0.6,4.6-1.9c-0.5-3.2-1.1-6.2-2-9.3c-1.5,0.6-3,1.3-4.6,1.9c1.1,1.9,2,3.6,2.9,5.7
			c1.2,2.9,5.6,1.9,4.8-1.3c-0.6-2.4-1.2-4.8-1.9-7.2c-1.6,0.4-3.2,0.9-4.8,1.3c0.9,2.3,1.8,4.5,3,6.7c1.3,2.6,5.2,0.8,4.6-1.9
			c-1.3-5.5-3.3-10.6-5.9-15.6c-1.3-2.4-5.7-0.7-4.6,1.9c1.6,3.7,3.1,7.4,4.7,11c1.2,2.9,5.6,1.9,4.8-1.3c-1-4-2.2-7.7-4.2-11.3
			c-1.5-2.5-5.2-0.8-4.6,1.9c0.7,3.1,1.4,6.2,2,9.4c1.6-0.4,3.2-0.9,4.8-1.3c-1.4-4.5-3.1-8.8-5-13.1c-1.2-2.6-5.3-0.7-4.6,1.9
			c1,3.7,2.1,7.3,3.4,10.9c1.1,3,5.7,1.8,4.8-1.3c-1.6-5.4-3.3-10.7-6.5-15.5c-1.3-1.9-4.8-1.4-4.7,1.3c0.2,4.5,2.8,7.9,3.8,12.1
			c1.5-0.6,3-1.3,4.6-1.9c-2.1-3.7-4.1-7.3-6-11.1c-1.4,0.8-2.9,1.7-4.3,2.5c2.3,4.3,4.6,8.5,5.2,13.4c1.6-0.2,3.3-0.4,4.9-0.7
			c-1.7-4.2-3.4-8.3-4.9-12.6c-1.1-3-5.5-1.8-4.8,1.3c1,5,2.8,10.5,2.3,15.5c1.6-0.2,3.3-0.4,4.9-0.7c-1.6-4.5-1.3-10-1.4-14.7
			c0-2.7-4.4-3.5-4.9-0.7c-0.5,2.8-0.8,5.6-0.8,8.5c0,3.2,1.2,6.9,0.6,10.1c1.6,0.2,3.3,0.4,4.9,0.7c-0.7-5.6-1.3-11.1-1.7-16.7
			c-0.2-2.7-4.1-3.5-4.9-0.7c-1.8,6.5-0.2,13-0.5,19.6c1.6-0.4,3.1-0.8,4.7-1.3c-1-1.9-0.7-5.4-0.9-7.5c-0.2-2.3-0.3-4.7-0.3-7
			c-0.1-3.2-5-3.2-5,0c0,5.4-0.1,10.8-0.1,16.2c1.6-0.2,3.3-0.4,4.9-0.7c-1-5.1-0.2-10.2-0.7-15.3c-0.3-2.7-4-3.5-4.9-0.7
			c-1.9,5.9-2.1,11.9-2.3,18c-0.1,3.2,4.9,3.2,5,0c0.1-4.3,0.3-8.6,0.4-12.9c0.1-2.8-4.2-3.4-4.9-0.7c-1,4.3-1,8.6-1.1,13.1
			c1.6-0.2,3.3-0.4,4.9-0.7c-1.2-4.6-0.8-9.7-1-14.5c-0.1-3.2-4.8-3.2-5,0c-0.3,4.1-0.4,8.1-0.3,12.2c0.1,3.2,4.9,3.2,5,0
			c0.1-3.2,0.2-6.3,0.1-9.5c0-2.8-4.2-3.5-4.9-0.7c-0.7,2.6-1,5.7-2.2,8.1c1.6,0.4,3.1,0.8,4.7,1.3c0-3.2,0.5-6.1,1.6-9.1
			c-1.6-0.2-3.3-0.4-4.9-0.7c-0.4,3.1-0.8,6.2-1.3,9.4c-0.4,2.8,4.3,3.4,4.9,0.7c0.8-3.4,1.6-6.7,3.2-9.9c-1.6-0.4-3.1-0.8-4.7-1.3
			c0,2.5,0,5-0.1,7.5c-0.1,2.9,4.2,3.3,4.9,0.7c1.1-3.9,2.2-7.8,3.3-11.7c0.9-3.1-3.8-4.4-4.8-1.3c-1.1,3.3-2.1,6.6-3.2,9.9
			c1.6,0.4,3.2,0.9,4.8,1.3c0.9-3.8,1.7-7.7,2.6-11.5c0.5-2.4-2.3-4.2-4.2-2.4c-1.7,1.7-2.9,3.5-4.1,5.6c1.4,0.8,2.9,1.7,4.3,2.5
			c1.8-4.3,3.8-8.4,5.9-12.5c1.5-2.9-2.5-5.2-4.3-2.5c-2,2.8-3.7,5.7-5.3,8.7c-1.5,2.8,2.6,5.3,4.3,2.5c1.6-2.5,3.1-5,4.7-7.5
			C55.6,57.9,51.3,55.4,49.6,58.2L49.6,58.2z"/>
	</g>
</g>
<g>
	<g>
		<path class="st0" d="M43,67c-0.5,1.9-1,3.8-1.5,5.7c1.6,0.4,3.2,0.9,4.8,1.3c0.4-1.7,0.5-3.3,0.4-5c-0.1-2.3-3.4-3.6-4.7-1.3
			c-1.1,2.1-1.8,4.3-2.4,6.6c-0.8,3.1,4,4.4,4.8,1.3c0.7-2.5,1.6-5,2.6-7.4c-1.6-0.4-3.2-0.9-4.8-1.3c-1,4.3-1.9,8.6-1.8,13
			c0.1,3.2,5.1,3.2,5,0c-0.1-4,0.7-7.8,1.6-11.7c0.7-3.2-3.6-4.2-4.8-1.3c-1,2.4-1.8,4.9-2.6,7.4c1.6,0.4,3.2,0.9,4.8,1.3
			c0.5-1.9,1-3.7,1.9-5.4c-1.6-0.4-3.1-0.8-4.7-1.3c0.1,1.3,0,2.4-0.3,3.7c-0.7,3.1,3.9,4.4,4.8,1.3c0.5-1.9,1.1-3.8,1.5-5.7
			C48.6,65.2,43.7,63.9,43,67L43,67z"/>
	</g>
</g>
<g>
	<g>
		<path class="st0" d="M42.2,74c-1.6,3.6-2.1,7.3-2.5,11.2c-0.3,2.9,4.2,3.3,4.9,0.7c0.3-1.1,0.5-2.2,0.6-3.4c-1.7,0-3.3,0-5,0
			c0,1.3,0,2.5,0,3.8c0,3.2,5,3.2,5,0c0-1.3,0-2.5,0-3.8c0-3.3-4.6-3.1-5,0c-0.1,0.7-0.2,1.4-0.4,2.1c1.6,0.2,3.3,0.4,4.9,0.7
			c0.3-2.9,0.6-6,1.8-8.7C47.8,73.6,43.5,71.1,42.2,74L42.2,74z"/>
	</g>
</g>
<g>
	<g>
		<path class="st0" d="M17.7,37.8c-6.2,1.1-10.2,8.3-9.3,14.4c1,6.6,7.2,9.5,13.2,7.3c5.1-1.9,11.8-7.1,10.6-13.4
			c-1.4-7.4-9.6-8.9-15.8-7.2c-3.1,0.9-1.8,5.7,1.3,4.8c3.1-0.9,10-1.1,9.6,4c-0.2,3-4.2,5.6-6.6,6.7C11.4,58.6,11.2,44,19,42.6
			C22.2,42.1,20.8,37.2,17.7,37.8L17.7,37.8z"/>
	</g>
</g>
<g>
	<g>
		<path class="st0" d="M65.2,10.7c-1,6-1.9,12-2.9,18c-0.5,3.1,4.3,4.5,4.8,1.3c1-6,1.9-12,2.9-18C70.5,8.9,65.7,7.6,65.2,10.7
			L65.2,10.7z"/>
	</g>
</g>
<g>
	<g>
		<path class="st0" d="M55.7,24.3c9.4-3.5,19-6.1,29-7.6c3.2-0.5,1.8-5.3-1.3-4.8c-9.9,1.5-19.6,4-29,7.6
			C51.4,20.7,52.7,25.5,55.7,24.3L55.7,24.3z"/>
	</g>
</g>
</svg>
