<?xml version="1.0" encoding="utf-8"?>
<!-- Generator: Adobe Illustrator 19.1.0, SVG Export Plug-In . SVG Version: 6.00 Build 0)  -->
<svg version="1.1" id="Calque_1" xmlns="http://www.w3.org/2000/svg" xmlns:xlink="http://www.w3.org/1999/xlink" x="0px" y="0px"
	 viewBox="0 0 100 100" style="enable-background:new 0 0 100 100;" xml:space="preserve">
<style type="text/css">
	.st0{fill:#F49520;}
</style>
<g>
	<g>
		<path class="st0" d="M40.7,32.7c-12.8,3-21.1,15.5-18.1,28.5c3.3,14,17.2,18.5,29.8,13.8c10.7-4,23-15,20-27.8
			C68.7,32.2,51.1,30.6,38.5,32c-3.2,0.4-3.2,5.4,0,5c9.6-1.1,22.2-1.4,27.7,8.2c5.7,9.8-4.6,20-12.8,24c-9.8,4.7-22.5,3.6-25.7-8.5
			C24.8,50,31.6,40,42.1,37.6C45.2,36.8,43.9,32,40.7,32.7L40.7,32.7z"/>
	</g>
</g>
<g>
	<g>
		<path class="st0" d="M43.3,53.5c-3.5-1.2-7.1-1.8-10.9-1.8c-3.2,0-3.2,5,0,5c3.3,0,6.4,0.6,9.5,1.7C45,59.4,46.3,54.5,43.3,53.5
			L43.3,53.5z"/>
	</g>
</g>
<g>
	<g>
		<path class="st0" d="M45.7,57.9c3.6-4.9,8.2-8.9,13.5-11.9c2.8-1.6,0.3-5.9-2.5-4.3c-6.1,3.5-11.2,8.1-15.3,13.7
			C39.4,58,43.8,60.5,45.7,57.9L45.7,57.9z"/>
	</g>
</g>
<g>
	<g>
		<path class="st0" d="M6.2,55.4C9.6,85.1,41,101.5,67.5,87.9c13.1-6.8,21.7-17.7,22.1-32.8c0.3-14-6.3-28-17-36.9
			c-10.2-8.4-27.7-13.7-38-2.6c-2.2,2.4,1.3,5.9,3.5,3.5c10.9-11.7,29.5-0.7,37.3,9.1c9.2,11.6,12.7,28.9,5,42.2
			c-7.6,13.3-26.7,20-41.2,16.7c-15.1-3.5-26.3-16.3-28-31.7C10.9,52.3,5.9,52.2,6.2,55.4L6.2,55.4z"/>
	</g>
</g>
<g>
	<g>
		<path class="st0" d="M34.9,4.9c-1.8,5.1-3.6,10.2-5.4,15.3c-0.7,1.9,1.3,3.5,3.1,3.1c5.8-1.4,11.7-1.7,17.6-0.9
			c3.1,0.4,4.5-4.4,1.3-4.8c-6.8-1-13.5-0.7-20.2,0.9c1,1,2.1,2.1,3.1,3.1c1.8-5.1,3.6-10.2,5.4-15.3C40.8,3.2,35.9,1.9,34.9,4.9
			L34.9,4.9z"/>
	</g>
</g>
</svg>
