<?xml version="1.0" encoding="utf-8"?>
<!-- Generator: Adobe Illustrator 19.1.0, SVG Export Plug-In . SVG Version: 6.00 Build 0)  -->
<svg version="1.1" xmlns="http://www.w3.org/2000/svg" xmlns:xlink="http://www.w3.org/1999/xlink" x="0px" y="0px"
	 viewBox="0 0 100 100" style="enable-background:new 0 0 100 100;" xml:space="preserve">
<style type="text/css">
	.st0{display:none;}
	.st1{fill:#BC5817;}
	.st2{fill:none;stroke:#BC5817;stroke-miterlimit:10;}
</style>
<g id="Calque_1" class="st0">
	
		<image style="display:inline;overflow:visible;" width="873" height="837" xlink:href="10EBA3AA.jpg"  transform="matrix(0.1207 0 0 0.1207 -3.172 0)">
	</image>
</g>
<g id="Calque_2" class="st0">
</g>
<g id="Calque_3">
	<g>
		<g>
			<path class="st1" d="M44.4,15c-14.8,1.7-27.9,13.7-33,27.4c-5.3,14.4-0.3,31,13.9,37.8c14.7,7,32.9,3.8,45.5-6
				c11.4-8.8,21.7-24.8,16.3-39.5c-7.2-19.6-30.3-22.7-48.3-20.6c-3.2,0.4-3.2,5.4,0,5c16.7-1.9,42.8,0.9,44.8,22.5
				c1.5,16.6-16,32-30.5,35.9c-16.8,4.5-38.2-2.5-38.8-22.5C13.7,39,28.4,21.9,44.4,20C47.6,19.6,47.6,14.6,44.4,15L44.4,15z"/>
		</g>
	</g>
	<path class="st2" d="M27.3,48c6.6,0.5,13.2,2.1,19.4,4.7c5.2-8.2,12.2-15.1,20.5-20.2"/>
	<g>
		<g>
			<path class="st1" d="M44.7,18.9c-0.1,3.2,0.2,6.3,0.8,9.5c0.6,3.2,5.4,1.8,4.8-1.3c-0.5-2.7-0.7-5.4-0.6-8.2
				C49.8,15.6,44.8,15.6,44.7,18.9L44.7,18.9z"/>
		</g>
	</g>
	<g>
		<g>
			<path class="st1" d="M45.8,73.7c-0.2,2.4,0.1,4.9,0.7,7.2c0.9,3.1,5.7,1.8,4.8-1.3c-0.5-2-0.7-3.9-0.5-5.9
				c0.1-1.3-1.2-2.5-2.5-2.5C46.8,71.2,45.9,72.4,45.8,73.7L45.8,73.7z"/>
		</g>
	</g>
	<g>
		<g>
			<path class="st1" d="M13.5,57.6c2,0,3.8,0.2,5.7,0.7c3.1,0.8,4.4-4,1.3-4.8c-2.3-0.6-4.7-0.9-7.1-0.9
				C10.3,52.6,10.3,57.6,13.5,57.6L13.5,57.6z"/>
		</g>
	</g>
	<g>
		<g>
			<path class="st1" d="M82.2,40.8c-2.5,0-5,0.4-7.4,1.2c-3,1-1.7,5.9,1.3,4.8c2-0.7,4-1,6.1-1C85.4,45.9,85.4,40.9,82.2,40.8
				L82.2,40.8z"/>
		</g>
	</g>
	<path class="st2" d="M65.7,21.1c-0.4,2.4-1.2,4.8-2.1,7.1"/>
	<path class="st2" d="M76.6,26.4c-2,1.9-4.1,3.9-6.1,5.8"/>
	<path class="st2" d="M60.9,67.6c0.8,0.3,1.4,0.8,2,1.4c1.2,1.2,1.9,2.9,3.1,4.2"/>
	<path class="st2" d="M72,59.8c2.4,0.6,4.8,1.4,7.1,2.4"/>
	<path class="st2" d="M34.6,73.1c-1.2,1.3-2.2,2.8-2.9,4.4"/>
	<path class="st2" d="M24.9,68.3c-2.3,1.3-4.3,3.1-6,5.2"/>
	<path class="st2" d="M16.5,40.2c0-0.2,0.3-0.2,0.4-0.1c1.8,1.2,3.5,2.3,5.3,3.5"/>
	<path class="st2" d="M26.8,27.1c1.7,1.7,3.3,3.5,4.7,5.5"/>
	<path class="st2" d="M42.8,86.7c58.8,0,55.6-58.8,39.4-69.2s-48-13.1-65.5,1.4"/>
	<path class="st2" d="M21.2,18.7c-3.9,1.4-7.1,4.2-10.2,6.9c-0.6,0.5-1.2,1-1.9,1.1c1.7-3.4,3-7,3.8-10.8c0-0.1,0-0.3-0.1-0.4
		s-0.3,0.1-0.2,0.2c1.6,1.7,4.9,4.2,7.9,3.3"/>
</g>
</svg>
