<?xml version="1.0" encoding="utf-8"?>
<!-- Generator: Adobe Illustrator 19.1.0, SVG Export Plug-In . SVG Version: 6.00 Build 0)  -->
<svg version="1.1" id="Calque_1" xmlns="http://www.w3.org/2000/svg" xmlns:xlink="http://www.w3.org/1999/xlink" x="0px" y="0px"
	 viewBox="0 0 100 100" style="enable-background:new 0 0 100 100;" xml:space="preserve">
<style type="text/css">
	.st0{fill:#BC5817;}
	.st1{fill:none;stroke:#BC5817;stroke-miterlimit:10;}
</style>
<g>
	<g>
		<path class="st0" d="M16.7,41.6c0,14.4,0,28.7,0,43.1c0,3.2,5,3.2,5,0c0-0.1,0-0.3,0-0.4c0-3.2-5-3.2-5,0c0,0.1,0,0.3,0,0.4
			c0,3.2,5,3.2,5,0c0-14.4,0-28.7,0-43.1C21.7,38.4,16.7,38.4,16.7,41.6L16.7,41.6z"/>
	</g>
</g>
<g>
	<g>
		<path class="st0" d="M19.7,88c20.3,0,40.6,0,60.9,0c3.2,0,3.2-5,0-5c-20.3,0-40.6,0-60.9,0C16.5,83,16.5,88,19.7,88L19.7,88z"/>
	</g>
</g>
<g>
	<g>
		<path class="st0" d="M83.4,85.4c0-15.1,0-30.2,0-45.3c0-3.2-5-3.2-5,0c0,15.1,0,30.2,0,45.3C78.4,88.6,83.4,88.6,83.4,85.4
			L83.4,85.4z"/>
	</g>
</g>
<g>
	<g>
		<path class="st0" d="M19.1,42.3c20.3,0,40.6,0,60.9,0c3.2,0,3.2-5,0-5c-20.3,0-40.6,0-60.9,0C15.9,37.3,15.9,42.3,19.1,42.3
			L19.1,42.3z"/>
	</g>
</g>
<g>
	<g>
		<path class="st0" d="M47.1,11.4c-9.3,9.1-19,17.7-29.2,25.7c-2.5,2,1,5.5,3.5,3.5c10.2-8,20-16.6,29.2-25.7
			C52.9,12.7,49.4,9.1,47.1,11.4L47.1,11.4z"/>
	</g>
</g>
<g>
	<g>
		<path class="st0" d="M47.8,15.5c8.3,9.9,19.3,18.5,29.8,25.9c2.6,1.9,5.1-2.5,2.5-4.3C70,29.9,59.3,21.5,51.3,11.9
			C49.3,9.5,45.7,13,47.8,15.5L47.8,15.5z"/>
	</g>
</g>
<path class="st1" d="M41.6,65.5c-0.3,5.6-0.5,11.1-0.8,16.7"/>
<path class="st1" d="M42.6,64.1c4.3,0,8.5,0,12.8,0"/>
<path class="st1" d="M57.2,63.9c0,0.8,0,1.6,0,2.4c0,3.9,0,7.7,0,11.6c0,1.5,0,3,0.7,4.3"/>
<path class="st1" d="M45.6,72.5c-0.9,0.1-1.7,1-1.7,1.9c0,0.2,0.1,0.4,0.2,0.6c0.4,0.6,1.3,0.5,2,0.2c0.4-0.2,0.8-0.5,1.1-0.9
	s0.3-0.9,0-1.3c-0.4-0.6-1.3-0.6-2-0.5"/>
<path class="st1" d="M27,48.6c-0.2,0.1-0.2,0.4-0.2,0.6c0,2.9-0.1,5.9-0.1,8.8c0,0.7,0,1.4,0.2,2.1"/>
<path class="st1" d="M28,48.4c2,0.2,4,0.5,5.9,0.7c1.3,0.2,4.9,0.1,5.4,1.1c0.3,0.6-0.1,2.2-0.2,2.9c0,1-0.1,2.1-0.1,3.1
	c0,2.1,0,4.1,0.1,6.2c-4.2-0.1-8.3,0-12.4-0.3"/>
<path class="st1" d="M33,49.7c0.3,3.6,0.4,7.3,0.3,10.9"/>
<path class="st1" d="M26.9,56c4.4-1.3,8.9-1.9,13.5-1.8"/>
<path class="st1" d="M60.6,47.9c0.5,4.1,0.3,8.2-0.5,12.3"/>
<path class="st1" d="M61.4,46.4c2,0,4.1,0.1,6.1,0.2c1.6,0.1,4.7-0.1,6.1,0.8c1.2,0.7,0.5,3.3,0.4,4.5c-0.2,2.1-0.4,4.3-0.8,6.4"/>
<path class="st1" d="M72.5,59.8c-3.7-0.4-7.4-0.6-11.1-0.6"/>
<path class="st1" d="M61.2,52.6c3.4-0.2,6.8-0.3,10.2-0.1"/>
<path class="st1" d="M68,46.8c-0.9,3.9-1.7,7.9-2.3,11.8"/>
</svg>
