<?xml version="1.0" encoding="utf-8"?>
<!-- Generator: Adobe Illustrator 19.1.0, SVG Export Plug-In . SVG Version: 6.00 Build 0)  -->
<svg version="1.1" id="Calque_1" xmlns="http://www.w3.org/2000/svg" xmlns:xlink="http://www.w3.org/1999/xlink" x="0px" y="0px"
	 viewBox="0 0 100 100" style="enable-background:new 0 0 100 100;" xml:space="preserve">
<style type="text/css">
	.st0{fill:#BC5817;}
	.st1{fill:none;stroke:#BC5817;stroke-miterlimit:10;}
</style>
<g>
	<g>
		<path class="st0" d="M7.4,21.6c28.4,0,56.8,0,85.2,0c3.2,0,3.2-5,0-5c-28.4,0-56.8,0-85.2,0C4.2,16.6,4.2,21.6,7.4,21.6L7.4,21.6z
			"/>
	</g>
</g>
<g>
	<g>
		<path class="st0" d="M90.1,20.7c0,18.2,0,36.4,0,54.5c0,3.2,5,3.2,5,0c0-18.2,0-36.4,0-54.5C95.1,17.5,90.1,17.5,90.1,20.7
			L90.1,20.7z"/>
	</g>
</g>
<g>
	<g>
		<path class="st0" d="M92.6,72.7c-28.4,0-56.8,0-85.2,0c-3.2,0-3.2,5,0,5c28.4,0,56.8,0,85.2,0C95.8,77.7,95.8,72.7,92.6,72.7
			L92.6,72.7z"/>
	</g>
</g>
<g>
	<g>
		<path class="st0" d="M9.9,74.2c0-18.4,0-36.7,0-55.1c0-3.2-5-3.2-5,0c0,18.4,0,36.7,0,55.1C4.9,77.4,9.9,77.4,9.9,74.2L9.9,74.2z"
			/>
	</g>
</g>
<g>
	<g>
		<path class="st0" d="M49.9,51.3c12.7-10,26.4-18.8,40.8-26.2c2.9-1.5,0.3-5.8-2.5-4.3c-14.8,7.7-28.7,16.7-41.8,27
			C43.8,49.8,47.4,53.3,49.9,51.3L49.9,51.3z"/>
	</g>
</g>
<g>
	<g>
		<path class="st0" d="M50.1,47.8C38,37.8,23.5,31.1,12.3,20.2c-2.3-2.2-5.8,1.3-3.5,3.5c11.3,11,25.8,17.6,37.8,27.6
			C49,53.3,52.6,49.8,50.1,47.8L50.1,47.8z"/>
	</g>
</g>
<path class="st1" d="M12.3,69.9c8.9-7.5,18.2-14.5,27.9-21"/>
<path class="st1" d="M62.6,48.7c6.8,7.4,14.4,14.1,22.5,20.1"/>
</svg>
