<?xml version="1.0" encoding="utf-8"?>
<!-- Generator: Adobe Illustrator 19.1.0, SVG Export Plug-In . SVG Version: 6.00 Build 0)  -->
<svg version="1.1" id="Calque_1" xmlns="http://www.w3.org/2000/svg" xmlns:xlink="http://www.w3.org/1999/xlink" x="0px" y="0px"
	 viewBox="0 0 100 100" style="enable-background:new 0 0 100 100;" xml:space="preserve">
<style type="text/css">
	.st0{fill:#F5951D;}
</style>
<g>
	<g>
		<path class="st0" d="M37.1,29.6c-5,2.9-8.9,9.6-6.2,15.4s10.2,6.1,14.7,2.5s7.7-11.2,2.9-15.8s-12.8-4.4-16.8,0.9
			c-1.9,2.6,2.4,5.1,4.3,2.5c2-2.6,7.4-2.2,9.3,0.4c2.1,2.8-1.1,7.1-3.5,8.6c-2.8,1.7-6.5,0.7-6.7-2.9c-0.1-3.1,2-5.7,4.5-7.2
			C42.5,32.3,39.9,28,37.1,29.6L37.1,29.6z"/>
	</g>
</g>
<g>
	<g>
		<path class="st0" d="M27.7,23.4C17,29.9,14.6,46.7,23.2,55.9c9.2,9.8,25.4,4.9,33.3-4.1c7.6-8.7,9.2-24.6-1.5-31.5
			c-11.8-7.7-27.9-0.7-36.9,8.2c-2.3,2.3,1.2,5.8,3.5,3.5c6.7-6.6,17.4-12.1,27-9.2c10.3,3.1,11,15.9,5.6,23.7
			c-4.8,7.1-16.7,13.1-24.8,8.1c-9.4-5.7-8.2-21.4,0.8-26.9C33,26,30.5,21.7,27.7,23.4L27.7,23.4z"/>
	</g>
</g>
<g>
	<g>
		<path class="st0" d="M14.6,28.1c1.6,2.3,3.3,4.7,5.4,6.5c1,0.9,2.5,1,3.5,0c0.9-0.9,1-2.6,0-3.5c-1.8-1.6-3.2-3.5-4.6-5.5
			c-0.8-1.1-2.2-1.6-3.4-0.9C14.4,25.3,13.8,27,14.6,28.1L14.6,28.1z"/>
	</g>
</g>
<g>
	<g>
		<path class="st0" d="M18,25.5c1.4-1.7,2.9-3.3,4.5-4.8c1-0.9,0.9-2.6,0-3.5c-1-1-2.6-0.9-3.5,0c-1.6,1.5-3.1,3.1-4.5,4.8
			c-0.9,1-1,2.5,0,3.5C15.3,26.4,17.1,26.5,18,25.5L18,25.5z"/>
	</g>
</g>
<g>
	<g>
		<path class="st0" d="M19.6,20.4c1.8,3,3.6,6,6.2,8.4c2.3,2.2,5.9-1.3,3.5-3.5c-2.2-2.1-3.8-4.7-5.4-7.4
			C22.3,15.1,18,17.6,19.6,20.4L19.6,20.4z"/>
	</g>
</g>
<g>
	<g>
		<path class="st0" d="M18.2,20.8c-1.3,1.2-0.8,2.7-0.5,4.2c0.3,1.4,0.6,2.7,0.9,4.1c0.3,1.3,1.8,2.1,3.1,1.7c1.4-0.4,2-1.7,1.7-3.1
			c-0.2-0.9-0.4-1.8-0.6-2.7c-0.2-0.7-0.5-1.6-0.5-2.3c-0.2,0.6-0.5,1.2-0.7,1.8c0.1,0,0.1-0.1,0.2-0.1
			C24.1,22.1,20.6,18.6,18.2,20.8L18.2,20.8z"/>
	</g>
</g>
<g>
	<g>
		<path class="st0" d="M17.4,22.9c-0.1,2.1,0,4.2,0.4,6.3c0.4,2.6,4.1,2.2,4.8,0c0.6-1.9,0.8-3.8,0.8-5.8c-0.1-2.1-2.7-3.4-4.3-1.8
			c-0.5,0.5-1,1.1-1.3,1.8c-0.1,0.3-0.3,0.5-0.4,0.8c-0.2,0.3-0.7,0.9,0.1,0.4c0.4-0.1,0.8-0.2,1.3-0.3c-0.1,0-0.2,0-0.3,0
			c-1.3,0.1-2.5,1.1-2.5,2.5c0,1.3,1.1,2.6,2.5,2.5s2.3-0.7,3-1.9c0.4-0.7,0.6-1.6,1.2-2.2c-1.4-0.6-2.8-1.2-4.3-1.8
			c0.1,1.5-0.1,3-0.6,4.4c1.6,0,3.2,0,4.8,0c-0.3-1.6-0.3-3.3-0.2-5c0.1-1.3-1.2-2.5-2.5-2.5C18.4,20.4,17.5,21.5,17.4,22.9
			L17.4,22.9z"/>
	</g>
</g>
<g>
	<g>
		<path class="st0" d="M21.4,25.7c0.1,0,0.1-0.1,0.2-0.1c-0.4,0.2-0.7,0.4-1.1,0.6c0.1,0,0.2,0,0.2,0c-0.4,0-0.9,0-1.3,0
			c-0.4-0.2-0.7-0.4-0.8-0.8c0.1,0.2,0.1,0.4,0.2,0.6c0.1,0.3,0.2,0.7,0.3,1c0.2,0.8,0.4,1.5,0.5,2.3c0.2,1.3,1.9,2.1,3.1,1.7
			c1.4-0.4,2-1.7,1.7-3.1c-0.3-1.6-0.6-3.3-1.3-4.8c-0.4-0.9-1.2-1.6-2.1-1.9c-1.2-0.4-2.2,0.1-3.1,0.8c-1.1,0.8-0.9,2.7,0,3.5
			C18.9,26.8,20.4,26.6,21.4,25.7L21.4,25.7z"/>
	</g>
</g>
<g>
	<g>
		<path class="st0" d="M20.5,25c0.1,1.6,0.4,3.2,0.7,4.8c0.3,1.3,1.8,2.1,3.1,1.7c1.3-0.4,2.1-1.8,1.7-3.1c-0.3-1.2-0.5-2.3-0.6-3.5
			c-0.1-1.3-1.1-2.6-2.5-2.5C21.7,22.6,20.4,23.6,20.5,25L20.5,25z"/>
	</g>
</g>
<g>
	<g>
		<path class="st0" d="M47,27.3c-0.2,0.4-0.4,0.8-0.6,1.2c0.8-0.2,1.6-0.4,2.4-0.6c0.6,0.1-1.3-4-1.4-4.1c-0.6-0.6-1.4-1.1-2.3-1.2
			c-2.3-0.1-3.5,2.6-4.5,4.2c1.5,0.2,3,0.4,4.6,0.6c-0.2-1.4-0.4-2.8-0.6-4.3c-0.3-1.9-3-2.4-4.2-1.1c-0.9,1-1.4,2.6-2.4,3.4
			c1.4,0.6,2.8,1.2,4.3,1.8c0-1.3,0-2.6,0-4c0-2.5-3.4-3.4-4.7-1.3c-0.9,1.6-1.8,3.1-2.9,4.6c1.4,0,2.9,0,4.3,0
			c-1-1.3-1-2.7-2.1-3.9c-0.8-0.9-2.1-0.9-3-0.4c-2,1-2.6,3.9-3.4,5.8c1.5,0.2,3,0.4,4.6,0.6c0.1-1.1,0.1-2.2,0.2-3.3
			c0.5-2.6-3.3-4.6-4.6-1.9c-1,2-2,4.1-3,6.1c1.6,0.4,3.1,0.8,4.7,1.3c-0.2-1.8-0.2-3.5-0.2-5.3c0.1-2.9-4-3.3-4.9-0.7
			c-0.9,2.8-1.9,5.6-2.8,8.4c1.6,0.2,3.3,0.4,4.9,0.7c-0.2-1.1-0.2-2.2,0-3.4c0.2-2.9-4.1-3.3-4.9-0.7c-0.5,1.8-1.1,3.5-1.8,5.3
			c1.6,0.2,3.3,0.4,4.9,0.7c0.1-0.9,0.2-1.8,0.2-2.7c0.5-3.1-3.9-4.5-4.8-1.3c-0.6,2.1-1.2,3.9-2.1,5.9c1.6,0.4,3.1,0.8,4.7,1.3
			c-0.1-1.6,0.2-3.2,1-4.6c-1.5-0.6-3-1.3-4.6-1.9c-0.6,3.6-1.1,7.2-1.3,10.8c-0.2,3,4,3.1,4.9,0.7c1.3-3.5,2-7.5,4.4-10.6
			c-1.4-0.4-2.8-0.7-4.2-1.1c1,2.3-0.2,6.8-0.4,9.3c-0.2,2.8,4.3,3.4,4.9,0.7c0.9-3.8,2.2-7.2,4.1-10.6c-1.6-0.4-3.1-0.8-4.7-1.3
			c-0.1,2.4-0.6,4.7-1.2,7c-0.8,3.1,3.9,4.4,4.8,1.3c0.9-2.9,1.9-5.8,3.2-8.6c-1.5-0.6-3-1.3-4.6-1.9c-0.3,1.8-0.8,3.5-1.4,5.2
			c1.6,0.4,3.2,0.9,4.8,1.3c0.2-1.5,0.8-3,1.5-4.3c-1.5-0.6-3-1.3-4.6-1.9c-0.4,1.1-0.8,2.1-1.3,3c1.5,0.6,3,1.3,4.6,1.9
			c0.7-2.1,1.5-3.9,2.9-5.6c-1.4-0.8-2.8-1.6-4.2-2.4c-1.6,4.2-4,7.8-6.5,11.5c1.4,0.8,2.9,1.7,4.3,2.5c0.4-0.7,0.8-1.5,1.2-2.2
			c-1.5-0.6-3-1.3-4.6-1.9c-0.5,2.2-1.4,4.1-2.6,6c1.5,0.6,3,1.3,4.6,1.9c0-0.1,0-0.1,0-0.2c-1.4,0.4-2.8,0.7-4.2,1.1
			c0.4,0.4,0.7,2.6,0.7,3.1c0.5,2.8,5.1,2.1,4.9-0.7c-0.1-1.4-0.2-2.7-0.2-4.1c-1.6,0.2-3.3,0.4-4.9,0.7c0.6,2.8,1.1,5.7,1.7,8.5
			c0.5,2.8,5,2.1,4.9-0.7c-0.1-2.1-0.8-4.6-0.4-6.7c-1.5,0.2-3,0.4-4.6,0.6c0.9,1.9,1.4,3.5,1.8,5.5c1.6-0.4,3.2-0.9,4.8-1.3
			c-0.5-1.2-0.8-2.6-0.8-3.9c-1.6,0.4-3.1,0.8-4.7,1.3c1,1.8,2,3.6,3,5.3c1.6,2.8,5.9,0.3,4.3-2.5c-0.6-1-1-1.6-1.7-2.5
			c-2.1-2.5-5.5,1.1-3.5,3.5c1.7,2.1,3.4,4.2,5.1,6.2c2,2.3,5-0.6,3.9-3c-0.7-1.7-1.6-2.8-2.8-4.1c-2.3-2.3-5.6,1.1-3.5,3.5
			c0.8,1,1.6,1.9,2.4,2.9c1-1.3,2-2.6,3-3.9c-1.6-1.1-3.2-2-5.1-1.3c-1.4,0.4-2,1.7-1.7,3.1c0.3,1.7,1.7,3.1,2.8,4.3
			c2.3,2.4,5.6-1.1,3.5-3.5c-1.6-2-3.5-3.5-5.7-4.8s-4.7,1.3-3.4,3.4c1.3,2.2,2.8,3.7,5,4.9c2.4,1.3,5.2-2,3-3.9
			c-2.4-2.2-4.8-4.4-7-6.7c-1.9-2-5.6,0.6-3.9,3c2,2.9,3.9,5.6,6.6,7.8c2.5,2.1,5.5-1,3.5-3.5c-1.9-2.5-4.2-4.2-7.1-5.5
			c-2.6-1.1-4.9,1.7-3,3.9c1.7,2,3.4,3.9,5.2,5.8c1.2-1.2,2.4-2.4,3.5-3.5c-2.7-2.3-5-4.7-7.1-7.7c-1.1-1.6-1.9-2.9-3.5-4
			c-1.8-1.3-4.3,0.8-3.7,2.8c1.2,3.5,2.9,6.5,5.2,9.4c1.8,2.3,5.2-0.6,3.9-3c-1.4-2.8-3.5-7.7-7.1-8c-2-0.2-2.9,2.2-2.2,3.8
			c1.5,3.1,3.3,5.8,5.4,8.4c1.9,2.4,5-0.7,3.9-3c-0.4-0.9-4.1-9.7-4.8-9.4c-1-0.1-2-0.3-3-0.4c1.3,1.2,2.4,3.5,3.3,5
			c1.5,2.4,5.4,0.9,4.6-1.9c-0.6-2.3-1.3-4.5-1.9-6.8c-1.6,0.4-3.2,0.9-4.8,1.3c1.5,4,3,8.5,5.9,11.8c1.9,2.1,4.9,6.3,8.1,5.4
			c1-0.3,1.9-1.3,1.8-2.4c0-1.7-0.8-3.2-1.3-4.8c-1.4,0.8-2.8,1.6-4.2,2.4c1.6,1.4,3.5,3.7,5.8,2.9c1.4-0.5,2-1.7,1.7-3.1
			c-0.3-1.9-2-3.5-3.2-4.9c-1,1.3-2,2.6-3,3.9c2.1,1,4.1,1.7,6.5,2c2.6,0.3,3.2-3.5,1.3-4.7c-1.7-1.1-3.4-1.7-5.3-2.2
			c-0.2,1.6-0.4,3.3-0.7,4.9c1.9,0.2,3.5,0.2,5.4,0c3.1-0.4,3.3-5.1,0-5c-1.6,0.1-3.1,0.1-4.7-0.2c-0.2,1.6-0.4,3.3-0.7,4.9
			c2.6,0.1,5.3,0.2,7.9,0.4c0-1.7,0-3.3,0-5c-1.2,0.1-2.4-0.1-3.5-0.7c-0.2,1.5-0.4,3-0.6,4.6c3.3,0.5,4.2,0.2,2.8-0.6
			c0-0.8,0-1.7,0-2.5c-1.1,2-4.4,2.5-6.4,3.1c-2.9,0.8-2,4.6,0.7,4.9c2.9,0.3,5.6,0.1,8.5-0.5c-0.4-1.6-0.9-3.2-1.3-4.8
			c-2,0.4-4.1,0.7-5.9,1.7c-1,0.6-1.3,1.7-1.1,2.8c1.1,6.6,11.7,1.3,11-4.3c-0.1-1.1-0.7-2.1-1.8-2.4c-1.9-0.4-5.1-0.3-7,0.4
			c-1,0.4-1.9,1.2-1.8,2.4c0.1,4.6,7.4,5.2,10.3,2.9c5.2-4-0.5-8-4.8-8.3c-3-0.2-3.1,4-0.7,4.9c3.2,1.2,8.3,0.8,9.6-3
			c1.2-3.5-2.1-5.5-5.2-5.6c-10.1-0.2-1.1,12.8,4.5,7.7c6-5.5-8.6-13.5-9-6c-0.1,8.2,15.2,8.1,11,0c-1.5-2.9-5.8-0.3-4.3,2.5
			c-0.1-1.1-0.6-1.9-1.4-2.5c-0.6,0.6-1.2,1.2-1.7,1.7c1.5-0.6,4.4,2.4-1.8,0.1c-0.2,1.6-0.4,3.3-0.7,4.9c-0.4-0.9-0.6-0.8-0.4,0.3
			c-0.6,0.8-1.2,1.6-1.8,2.4c0.9-0.3,3.4-0.7,4.3-0.4c-0.6-0.8-1.2-1.6-1.8-2.4c-0.4,1-0.8,2-1.1,3c-0.4,0.9-0.8,1.9-1.1,2.8
			c1.2-0.7,3.3-0.9,4.7-1.2c3.1-0.7,1.8-5.5-1.3-4.8c-2.5,0.5-4.7,0.6-7.2,0.3c0.2,1.6,0.4,3.3,0.7,4.9c3.4-0.9,7.7-2,9.4-5.4
			c0.4-0.8,0.5-1.8,0-2.5c-1.9-2.8-5.5-2.4-8.4-1.7c-2.1,0.6-2.4,3.5-0.6,4.6c1.9,1.2,3.7,1.4,6,1.4c3.2,0,3.2-4.8,0-5
			c-2.6-0.1-5.3-0.2-7.9-0.4c-2.8-0.1-3.5,4.5-0.7,4.9c2,0.3,3.9,0.4,6,0.4c0-1.7,0-3.3,0-5C41.6,48,40,48,38,47.8
			c-2.8-0.2-3.3,4.2-0.7,4.9c1.5,0.3,2.9,0.8,4.1,1.7c0.4-1.6,0.8-3.1,1.3-4.7c-1.4-0.1-2.7-0.6-3.9-1.3c-2.5-1.2-5,1.7-3,3.9
			c0.8,0.8,1.5,1.7,1.9,2.7c0.6-1,1.2-2.1,1.7-3.1c0.7-0.7,0.4-1.2-0.9-1.6c-1.8-1.5-5-0.1-4.2,2.4c0.4,1.2,0.8,2.3,1.1,3.5
			c0.6-0.8,1.2-1.6,1.8-2.4c0.6-0.2-3.6-4.6-4.1-5.3c-1.7-2.5-2.7-5.6-3.7-8.4c-1.1-3-5.7-1.8-4.8,1.3c0.6,2.3,1.3,4.5,1.9,6.8
			c1.5-0.6,3-1.3,4.6-1.9c-1.3-2-2.3-4.3-4.1-6c-0.9-0.8-2-0.9-3-0.4c-5.7,2.7,1.5,12.9,3,16.2c1.3-1,2.6-2,3.9-3
			c-1.9-2.3-3.3-4.8-4.6-7.4c-0.7,1.3-1.4,2.5-2.2,3.8c-2.2-0.2,0,0.8,0.9,2.2c0.7,1.1,1.3,2.2,1.9,3.3c1.3-1,2.6-2,3.9-3
			c-1.8-2.2-3-4.5-3.9-7.2c-1.2,0.9-2.4,1.9-3.7,2.8c1.7,1.2,2.8,3.9,4.1,5.5c1.6,2,3.5,3.8,5.4,5.4c2.4,2,5.8-1.2,3.5-3.5
			c-1.8-1.9-3.5-3.8-5.2-5.8c-1,1.3-2,2.6-3,3.9c2.5,1.1,4.4,2.5,6.1,4.7c1.2-1.2,2.4-2.4,3.5-3.5c-2.4-2-4.1-4.3-5.9-6.8
			c-1.3,1-2.6,2-3.9,3c2.3,2.3,4.6,4.6,7,6.7c1-1.3,2-2.6,3-3.9c-1.5-0.6-2.5-1.6-3.2-3.1c-1.1,1.1-2.3,2.3-3.4,3.4
			c1.8,1.1,3.3,2.4,4.6,4c1.2-1.2,2.4-2.4,3.5-3.5c-0.7-0.6-1.2-1.2-1.6-2.1c-0.6,1-1.2,2.1-1.7,3.1c0.4,0.3,0.8,0.6,1.3,0.8
			c2.5,1.7,4.7-1.9,3-3.9c-0.8-1-1.6-1.9-2.4-2.9c-1.2,1.2-2.4,2.4-3.5,3.5c1,0.8,1.7,1.8,2.1,3.1c1.3-1,2.6-2,3.9-3
			c-1.7-2.1-3.5-4.1-5.1-6.2c-1.2,1.2-2.4,2.4-3.5,3.5c0.3,0.5,0.6,1,1,1.5c1.4-0.8,2.9-1.7,4.3-2.5c-1-1.8-2-3.6-3-5.3
			c-1.2-2.1-4.8-1.3-4.7,1.3c0.1,1.8,0.4,3.5,1,5.2c1,3.1,5.5,1.8,4.8-1.3c-0.5-2.3-1.3-4.5-2.3-6.7c-0.9-1.9-4.2-1.4-4.6,0.6
			c-0.6,2.8,0.2,5.2,0.3,8c1.6-0.2,3.3-0.4,4.9-0.7c-0.6-2.8-1.1-5.7-1.7-8.5c-0.5-2.8-5.1-2.1-4.9,0.7c0.1,1.4,0.2,2.7,0.2,4.1
			c1.6-0.2,3.3-0.4,4.9-0.7c-0.3-1.7-0.7-4-2-5.3s-3.7-0.7-4.2,1.1c0,0.1,0,0.1,0,0.2c-0.7,2.8,3,4.3,4.6,1.9
			c1.5-2.3,2.5-4.6,3.1-7.2c0.7-2.7-3.1-4.5-4.6-1.9c-0.4,0.7-0.8,1.5-1.2,2.2c-1.6,2.8,2.5,5.2,4.3,2.5c2.8-4,5.3-8.1,7-12.7
			c0.9-2.3-2.7-4.4-4.2-2.4c-1.9,2.5-3.2,4.8-4.2,7.8c-0.8,2.7,3.3,4.5,4.6,1.9c0.7-1.4,1.3-2.8,1.8-4.2c1-2.6-3.3-4.5-4.6-1.9
			c-0.9,1.8-1.6,3.5-2,5.5c-0.7,3.2,3.7,4.3,4.8,1.3c0.6-1.8,1.1-3.4,1.4-5.2c0.5-2.6-3.3-4.7-4.6-1.9c-1.5,3.2-2.7,6.4-3.7,9.8
			c1.6,0.4,3.2,0.9,4.8,1.3c0.7-2.8,1.2-5.5,1.4-8.4c0.1-2.5-3.5-3.4-4.7-1.3c-2.1,3.7-3.7,7.6-4.6,11.8c1.6,0.2,3.3,0.4,4.9,0.7
			c0.2-3.2,1.4-7.6,0.2-10.6c-0.6-1.5-2.9-2.8-4.2-1.1c-3,3.9-4,8.3-5.7,12.8c1.6,0.2,3.3,0.4,4.9,0.7c0.2-3.2,0.6-6.3,1.1-9.5
			c0.4-2.6-3.3-4.7-4.6-1.9c-1.1,2.4-1.6,4.5-1.7,7.1c0,2.3,3.6,3.6,4.7,1.3c1.1-2.3,1.9-4.6,2.6-7c-1.6-0.4-3.2-0.9-4.8-1.3
			c-0.2,1.5-0.4,2.5-0.4,4c-0.1,3,3.9,3.1,4.9,0.7c0.7-1.7,1.3-3.5,1.8-5.3c-1.6-0.2-3.3-0.4-4.9-0.7c-0.2,1.1-0.2,2.2,0,3.4
			c0.3,2.8,4,3.5,4.9,0.7s1.9-5.6,2.8-8.4c-1.6-0.2-3.3-0.4-4.9-0.7c-0.1,1.8,0,3.5,0.2,5.3c0.2,2.2,3.5,3.7,4.7,1.3
			c1-2,2-4.1,3-6.1c-1.5-0.6-3-1.3-4.6-1.9c-0.4,2.1-0.5,3.8-0.2,5.9s3.7,2.5,4.6,0.6c0.4-1,0.9-1.9,1.3-2.9c0.8-1.5,1-1.9,0.3-1.1
			c-1-0.1-2-0.3-3-0.4c0.6,0.7,0.7,2.1,1.3,2.9c1.2,1.5,3.2,1.7,4.3,0c1-1.5,1.9-3,2.9-4.6c-1.6-0.4-3.1-0.8-4.7-1.3
			c0,1.3,0,2.6,0,4c0,2.3,2.7,3.1,4.3,1.8c1.2-1,1.4-2.3,2.4-3.4c-1.4-0.4-2.8-0.7-4.2-1.1c0.2,1.4,0.4,2.8,0.6,4.3
			c0.3,2.3,3.5,2.2,4.6,0.6c0.6-0.5,0.8-1.1,0.8-1.8c-0.8-0.2-1.6-0.4-2.4-0.6c2,1.6,1.1,5.7,4.5,5.9c2.4,0.1,3.4-2.2,4-4.1
			C52.8,25.6,47.9,24.2,47,27.3L47,27.3z"/>
	</g>
</g>
<g>
	<g>
		<path class="st0" d="M47.5,33.4c1.5,2.1,3.1,4,4.9,5.8c1.8,1.9,4.7-0.1,4.2-2.4c-0.6-2.9-1.9-5.3-3.5-7.8
			c-1.8-2.8-5.6-0.4-4.3,2.5c1.5,3.5,3.1,6.9,4.6,10.4c1.4-0.8,2.9-1.7,4.3-2.5c-1-1.7-2-3.3-3-5c-1.2-1.9-3.9-1.4-4.6,0.6
			c-0.9,2.6,0,5.9,0.2,8.6c1.6-0.4,3.1-0.8,4.7-1.3c-1.4-2.2-2.3-4.5-2.9-7c-0.7-2.7-5-2.2-4.9,0.7c0.1,3.3,0.8,6.4,1.8,9.5
			c0.9,3.1,5.5,1.8,4.8-1.3c-0.5-2.2-0.9-4.4-1.3-6.7c-0.5-3-4.6-1.9-4.9,0.7c-0.3,2.7-0.1,5,0.7,7.7c0.6,1.9,3.6,2.7,4.6,0.6
			c0.7-1.6,1.1-4,2.1-5.3c-1.4-0.4-2.8-0.7-4.2-1.1c0.9,2.4,1.1,5,2.4,7.3c1.3,2.4,4.4,1,4.7-1.3c0.1-1.3-0.2-2.8,0.3-4.1
			c-1.6,0-3.2,0-4.8,0c0.5,1.8,0.9,3.5,1.2,5.2c0.5,2.7,5.2,2.1,4.9-0.7c-0.2-2.1-0.3-4.2-0.2-6.4c-1.6,0.2-3.3,0.4-4.9,0.7
			c0.5,1.3,1,2.6,1.5,3.8c0.9,2.4,5.1,2.4,4.9-0.7c-0.2-3.4-0.6-6.8-1.1-10.2c-1.6,0.4-3.2,0.9-4.8,1.3c0.6,1.9,1.2,3.7,2.1,5.5
			c1.3,2.6,5.3,0.8,4.6-1.9c-0.8-3.1-1.5-6.3-2.1-9.4c-1.6,0.4-3.2,0.9-4.8,1.3c0.4,1.4,0.8,2.8,1.2,4.2c1.6-0.4,3.2-0.9,4.8-1.3
			c-0.8-2.7-1.5-5.4-2.3-8.1c-0.9-3.1-5.6-1.8-4.8,1.3c0.5,2.3,1.1,4.6,1.6,6.9c1.5-0.6,3-1.3,4.6-1.9c-1.4-2.3-1.7-4.9-3.1-7.2
			c-1.3-2.2-4.5-1.2-4.7,1.3c-0.2,3,1.2,5.6,1.3,8.6c1.6-0.4,3.1-0.8,4.7-1.3c-1.8-3.4-2.1-7.3-3.5-10.8c-1.6,0.4-3.2,0.9-4.8,1.3
			c1.2,3.1,2.3,6.2,3.5,9.2c1.6-0.4,3.2-0.9,4.8-1.3c-1.7-4.1-3.4-9-6.9-12c-1.7-1.4-5.2-0.1-4.2,2.4c0.8,1.9,1.5,3.4,2.8,5.1
			c1.9,2.5,5.9,0.4,4.3-2.5c-1.3-2.4-2.9-4-5.2-5.4c-2.6-1.5-4.8,1.8-3,3.9c2.1,2.6,4.3,5.2,6.4,7.8c1.2-1.2,2.4-2.4,3.5-3.5
			c-3-2.8-6.2-5.5-9.4-8.1c-1.2,1.2-2.4,2.4-3.5,3.5c2.3,1.8,4.4,3.7,6.5,5.8c1-1.3,2-2.6,3-3.9c-3.1-2.2-6.2-4.3-9.5-6.1
			c-2-1.1-4.9,1.3-3.4,3.4c1.6,2.3,3.3,3.9,5.9,5c2.9,1.3,5.2-2.4,2.5-4.3c-2.9-2.1-5.9-3.6-9.2-4.8c-2.1-0.8-3.8,1.9-2.8,3.7
			c1.4,2.4,3.1,4,5.6,5.3c0.8-1.4,1.7-2.9,2.5-4.3c-2.4-1.1-4.6-1.7-7.3-1.9c-2.1-0.2-3.4,2.9-1.8,4.3c1.6,1.3,3.1,2.2,5,2.9
			c0.4-1.6,0.9-3.2,1.3-4.8c-1.9-0.4-3.6-0.7-5.5-0.7c-2,0-2.9,2.1-2.2,3.8c1.3,2.9,5.7,4.5,8.4,5.7c0.6-1.5,1.3-3,1.9-4.6
			c-2.6-0.7-5.1-1-7.7-1c-2.5,0-3.3,3.4-1.3,4.7c4.1,2.5,8.5,3,13.2,3.2c3.3,0.1,3.1-4.6,0-5c-2.3-0.3-4.1-0.6-6.2-1.6
			c-0.4,1.6-0.8,3.1-1.3,4.7C42.9,32.3,45.2,32.8,47.5,33.4c2.7,0.8,4.6-3.3,2-4.5c-2.1-1-4.3-2-6.4-3c-0.6,1.5-1.3,3-1.9,4.6
			c2.2,0.8,4.4,1.7,6.6,2.5c2.7,1,4.4-3.2,1.9-4.6C47.4,27.2,44,26,42.2,24c-2.1-2.5-5.6,1.1-3.5,3.5c2.1,2.5,5.7,3.7,8.5,5.2
			c0.6-1.5,1.3-3,1.9-4.6c-2.2-0.8-4.4-1.7-6.6-2.5c-2.6-1-4.5,3.4-1.9,4.6c2.1,1,4.3,2,6.4,3c0.6-1.5,1.3-3,1.9-4.6
			c-2.9-0.8-5.6-1.4-8.6-1.5c-2.4-0.1-3.5,3.6-1.3,4.7c2.8,1.4,5.6,1.9,8.8,2.3c0-1.7,0-3.3,0-5c-3.8-0.2-7.4-0.4-10.7-2.5
			c-0.4,1.6-0.8,3.1-1.3,4.7c2.2,0,4.3,0.3,6.4,0.8c2.6,0.7,4.6-3.4,1.9-4.6c-1.6-0.7-5.8-2.2-6.6-4c-0.7,1.3-1.4,2.5-2.2,3.8
			c1.4-0.1,2.8,0.1,4.2,0.5c3.2,0.8,4.3-3.7,1.3-4.8c-0.9-0.5-1.9-1.1-2.8-1.6c-0.6,1.4-1.2,2.8-1.8,4.3c1.7,0,3.3,0.4,4.7,1.2
			c2.9,1.3,5.4-2.8,2.5-4.3c-1.7-0.9-2.8-1.8-3.8-3.5c-0.9,1.2-1.9,2.4-2.8,3.7c2.9,1.1,5.5,2.5,8,4.3c0.8-1.4,1.7-2.9,2.5-4.3
			c-1.7-0.8-3-1.7-4.1-3.2c-1.1,1.1-2.3,2.3-3.4,3.4c3.3,1.8,6.4,3.9,9.5,6.1c2.4,1.7,5-1.9,3-3.9c-2-2.1-4.2-4-6.5-5.8
			c-2.5-2-6,1.5-3.5,3.5c3.2,2.6,6.3,5.3,9.4,8.1c2.4,2.2,5.6-1.1,3.5-3.5c-2.1-2.6-4.3-5.2-6.4-7.8c-1,1.3-2,2.6-3,3.9
			c1.7,1,2.6,2,3.4,3.6c1.4-0.8,2.9-1.7,4.3-2.5c-1-1.1-1.8-2.4-2.3-3.9c-1.4,0.8-2.8,1.6-4.2,2.4c2.8,2.3,4.3,6.5,5.6,9.8
			c1.2,2.9,6,1.7,4.8-1.3c-1.2-3.1-2.3-6.2-3.5-9.2c-1.1-3-5.9-1.7-4.8,1.3c1.5,4,1.9,8.2,4,12c1.2,2.1,4.8,1.2,4.7-1.3
			c-0.1-2.9-1.5-5.7-1.3-8.6c-1.6,0.4-3.1,0.8-4.7,1.3c1.4,2.3,1.7,4.9,3.1,7.2c1.5,2.4,5.2,0.8,4.6-1.9c-0.5-2.3-1.1-4.6-1.6-6.9
			c-1.6,0.4-3.2,0.9-4.8,1.3c0.8,2.7,1.5,5.4,2.3,8.1c0.9,3.1,5.7,1.8,4.8-1.3c-0.4-1.4-0.8-2.8-1.2-4.2c-0.9-3.1-5.4-1.8-4.8,1.3
			c0.6,3.2,1.3,6.3,2.1,9.4c1.5-0.6,3-1.3,4.6-1.9c-0.7-1.4-1.2-2.8-1.6-4.3c-0.9-3.2-5.3-1.8-4.8,1.3c0.5,2.9,0.8,5.9,1,8.8
			c1.6-0.2,3.3-0.4,4.9-0.7c-0.5-1.3-1-2.6-1.5-3.8c-1-2.6-4.8-2.3-4.9,0.7c-0.1,2.1,0,4.2,0.2,6.4c1.6-0.2,3.3-0.4,4.9-0.7
			c-0.3-1.8-0.7-3.5-1.2-5.2c-0.7-2.6-3.9-2.2-4.8,0c-0.7,1.8-0.3,3.5-0.5,5.4c1.6-0.4,3.1-0.8,4.7-1.3c-1-1.9-1.1-4.1-1.9-6.1
			c-0.6-1.5-2.9-2.7-4.2-1.1c-1.6,2-1.9,4-2.9,6.3c1.5,0.2,3,0.4,4.6,0.6c-0.6-2.2-0.8-4.1-0.5-6.3c-1.6,0.2-3.3,0.4-4.9,0.7
			c0.3,2.2,0.8,4.5,1.3,6.7c1.6-0.4,3.2-0.9,4.8-1.3c-0.8-2.8-1.5-5.3-1.6-8.2c-1.6,0.2-3.3,0.4-4.9,0.7c0.7,3,1.8,5.6,3.4,8.2
			c1.2,2,4.9,1.3,4.7-1.3c-0.2-2-1-5.2-0.4-7.2c-1.5,0.2-3,0.4-4.6,0.6c1,1.6,2,3.3,3,5c1.7,2.9,5.6,0.4,4.3-2.5
			c-1.5-3.5-3.1-6.9-4.6-10.4c-1.4,0.8-2.9,1.7-4.3,2.5c1.3,2.1,2.5,4.1,3,6.6c1.4-0.8,2.8-1.6,4.2-2.4c-1.5-1.5-2.8-3-4.1-4.8
			C50,28.3,45.6,30.8,47.5,33.4L47.5,33.4z"/>
	</g>
</g>
<g>
	<g>
		<path class="st0" d="M38.5,10.9L38.5,10.9c-0.6-1.2-1.8-1.4-2.9-1.2h-0.1c-1.1,0.2-1.7,1.4-1.8,2.4c-0.1,1.5,0.7,3.4,1.1,4.9
			c0.5,1.8,1,3.6,1.5,5.4c0.9,3.1,5.8,1.8,4.8-1.3c-0.5-1.6-0.9-3.1-1.3-4.7c-0.3-1.1-1.2-3.1-1.1-4.3c-0.6,0.8-1.2,1.6-1.8,2.4H37
			c-0.9-0.4-1.9-0.8-2.8-1.1v0.1C35.6,16.3,39.9,13.8,38.5,10.9L38.5,10.9z"/>
	</g>
</g>
<g>
	<g>
		<path class="st0" d="M36.6,14.3c1.3-0.1,2.6-0.1,3.9-0.2c1-0.1,2.5-0.4,3.5-0.3c-0.5-0.4-1-0.8-1.5-1.1c0.4,0.8,0.1,2.6,0.1,3.5
			c0,1.3-0.1,2.6-0.2,3.8c1.7,0,3.3,0,5,0c0-1.7-0.2-3.5-0.7-5.2c-0.3-1.4-0.7-3.1-2.1-3.8c-3.8-2-4.9,4.5-5.8,6.8
			c1.4-0.4,2.8-0.7,4.2-1.1c0.3,0.7,0.4,0.7,0.3,0c0-0.3,0-0.6,0-0.9c0-0.7,0-1.4-0.1-2c-0.1-2.9-4-3.3-4.9-0.7
			c-0.5,1.4-1,2.9-1.4,4.3c1.6,0.4,3.2,0.9,4.8,1.3c0.3-2.2,1.2-4.7-0.4-6.5c-0.5-0.6-1.7-0.9-2.4-0.6c-1.9,0.7-2.2,2.3-2.9,4
			c-0.7,1.9,1.4,3.4,3.1,3.1c0.2,0,0.3-0.1,0.5-0.1c3.2-0.6,1.8-5.4-1.3-4.8c-0.2,0-0.3,0.1-0.5,0.1c1,1,2.1,2.1,3.1,3.1
			c0.2-0.5,0.3-1.1,0.6-1.6c-0.5,0.4-1,0.8-1.5,1.1c0.1,0,0.2-0.1,0.3-0.1c-0.8-0.2-1.6-0.4-2.4-0.6c0.1,0.1,0.1,0.1,0.2,0.2
			c-0.2-0.6-0.5-1.2-0.7-1.8c0,1.1-0.2,2.2-0.4,3.2c-0.4,3.1,3.8,4.5,4.8,1.3c0.5-1.4,1-2.9,1.4-4.3c-1.6-0.2-3.3-0.4-4.9-0.7
			c0.1,2.3-0.2,4.7,1.3,6.5c1.3,1.6,3.6,0.5,4.2-1.1c0.3-0.8,0.6-1.7,0.9-2.5c0.1-0.4,0.3-0.8,0.4-1.2c0.4-0.8,0.3-0.8-0.4-0.1
			c-0.8,0-1.7,0-2.5,0c-0.8-0.4-0.7-0.9-0.4,0.2c0.1,0.5,0.3,1,0.4,1.5c0.2,1,0.3,2,0.3,3c0,3.3,4.7,3.2,5,0
			c0.1-1.7,0.3-3.4,0.2-5.1c0-1.6,0-3.7-1-5c-1.1-1.4-3-1-4.5-0.9c-1.8,0.1-3.7,0.2-5.5,0.3C33.4,9.5,33.4,14.5,36.6,14.3L36.6,14.3
			z"/>
	</g>
</g>
<g>
	<g>
		<path class="st0" d="M55.8,25.3c1.8-2.1,3.8-3.7,6.4-4.7c-0.8-0.2-1.6-0.4-2.4-0.6c2.1,2,5.1,4.9,5.7,7.9c0.2-0.8,0.4-1.6,0.6-2.4
			c-1.4,1.5-4.1,2.7-5.9,3.8c1.3,0.7,2.5,1.4,3.8,2.2c-0.2-2.3-0.4-4.7-0.6-7c-0.2-2.6-4.4-3.6-4.9-0.7c-0.3,1.6-0.5,3.2-0.8,4.8
			c1.6,0.2,3.3,0.4,4.9,0.7c0.2-1.6,0.8-3,1.8-4.2c-1.4-0.6-2.8-1.2-4.3-1.8c0.2,1.5,0.1,2.7-0.3,4.1c-0.9,3.1,3.8,4.4,4.8,1.3
			c0.1-0.2,0.3-0.4,0.4-0.6c-1.3-0.7-2.5-1.4-3.8-2.2c0.1,0.7,0,1.5-0.3,2.2c1.6,0.2,3.3,0.4,4.9,0.7c-0.1-0.6,0-1.2,0.1-1.8
			c-1.6-0.2-3.3-0.4-4.9-0.7c0.2,0.5,0.1,0.9-0.3,1.2c1.5,0.2,3,0.4,4.6,0.6c-0.7-2.3-0.1-5.9-3-7c-3-1.1-4.5,2.8-5.8,4.8
			c1.5,0.6,3,1.3,4.6,1.9c0.5-1.6,1-3.3,1.5-4.9c0.9-2.8-3.1-4.2-4.6-1.9c-0.6,0.9-1.2,1.9-1.8,2.8c1.5,0.6,3,1.3,4.6,1.9
			c0.4-1.5,0.9-2.8,1.7-4.2c-1.4-0.8-2.9-1.7-4.3-2.5c-0.6,1.1-1.1,2.1-1.7,3.2c1.6,0.4,3.1,0.8,4.7,1.3c0-0.3,0-0.6,0-1
			c0-1.7-1.6-2.8-3.2-2.4c-2.3,0.6-3.7,2-4.4,4.3c-1,3.1,3.8,4.4,4.8,1.3c0.3-0.3,0.6-0.5,0.9-0.8c-1.1-0.8-2.1-1.6-3.2-2.4
			c0,0.3,0,0.6,0,1c0.1,2.4,3.5,3.5,4.7,1.3c0.6-1.1,1.1-2.1,1.7-3.2c1.5-2.8-2.7-5.3-4.3-2.5c-1,1.7-1.7,3.5-2.2,5.4
			c-0.7,2.8,3,4.3,4.6,1.9c0.6-0.9,1.2-1.9,1.8-2.8c-1.5-0.6-3-1.3-4.6-1.9c-0.5,1.6-1,3.3-1.5,4.9c-0.9,2.8,3.1,4.2,4.6,1.9
			c0.2-0.3,2.2-3,1.2-2.6c-0.6-0.1-1.3-0.2-1.9-0.3c-0.2-0.1,0.3,3.4,0.4,3.9c0.7,2.1,3.4,2.4,4.6,0.6c0.8-1.1,1.1-2.4,0.9-3.8
			c-0.3-2.5-4.3-3.7-4.9-0.7c-0.2,1-0.3,2-0.3,3.1c0.1,2.8,4.1,3.4,4.9,0.7c0.3-1.2,0.5-2.3,0.5-3.5c0-2-2.1-2.9-3.8-2.2
			c-1.5,0.7-2.2,2-2.7,3.6c1.6,0.4,3.2,0.9,4.8,1.3c0.5-1.8,0.7-3.6,0.5-5.5s-2.7-3.6-4.3-1.8c-1.9,2.3-2.9,4.7-3.2,7.7
			c-0.3,2.8,4.5,3.4,4.9,0.7c0.3-1.6,0.5-3.2,0.8-4.8c-1.6-0.2-3.3-0.4-4.9-0.7c0.2,2.3,0.4,4.7,0.6,7c0.1,1.8,2,3.2,3.8,2.2
			c2.4-1.5,8.5-3.7,7.5-7.4c-1-3.6-4.2-7.2-6.9-9.7c-0.6-0.6-1.6-1-2.4-0.6c-3.4,1.3-6.3,3.2-8.6,6C50.3,24.2,53.8,27.7,55.8,25.3
			L55.8,25.3z"/>
	</g>
</g>
<g>
	<g>
		<path class="st0" d="M57.8,44.4c2.8,0.9,6,1.5,8.6,2.9c-0.4-0.9-0.8-1.9-1.1-2.8c-0.6,1.7-1.2,3.4-1.8,5.1c-0.5,1.5-0.9,3.5-2,4.7
			c1-0.1,2-0.3,3-0.4c-3.2-1.5-7.8-2.7-10.2-5.3c-0.6,1.4-1.2,2.8-1.8,4.3c1.8,0,4.3,0.5,5.8-0.7c2-1.5,0.7-3.6,1.3-5.5
			c-1.4,0.4-2.8,0.7-4.2,1.1c2.1,1.7,3.1,4.3,5.1,6.2c1.7,1.7,5,0,4.2-2.4c-0.6-1.6-1.1-3.3-1.7-4.9c-1.5,0.6-3,1.3-4.6,1.9
			c0.9,1.6,1.8,3.2,2.8,4.7c1.6,2.4,5.1,0.9,4.6-1.9c-0.4-1.9-0.7-3.8-1.1-5.7c-0.6-2.9-4.7-2-4.9,0.7c0,0.6-0.3,2.4-0.8,2.7
			c0.6-0.1,1.3-0.2,1.9-0.3c-0.5-0.1-0.4-2.3-0.4-2.6c-1.6,0.2-3.3,0.4-4.9,0.7c0.1,0.7-0.1,1.3-0.7,1.7c1.2,0.5,2.4,1,3.7,1.5
			c-0.1-0.2-0.1-0.5-0.2-0.7c-0.1,0.6-0.2,1.3-0.3,1.9c1-2.2,2.8-1,3.9,0.3c1.9,2.3,5.1-0.6,3.9-3c-0.4-0.8-0.8-1.7-1-2.5
			c-1.4,0.8-2.8,1.6-4.2,2.4c0.9,0.9,1.6,1.1,2.9,1.2c2.7,0.2,3.1-3.4,1.3-4.7c-1.8-1.3-3.9-1.4-5.8-2.4c-0.2,1.5-0.4,3-0.6,4.6
			c0.7-0.2,3.1-0.9,3.7-0.3c2.1,2.4,5.6-1.1,3.5-3.5c-2-2.3-5.9-1.7-8.6-1c-2,0.5-2.5,3.6-0.6,4.6s4.1,1.2,5.8,2.4
			c0.4-1.6,0.8-3.1,1.3-4.7c-0.2,0-0.4,0-0.6,0c0.6,0.2,1.2,0.5,1.8,0.7c-0.2-0.1-0.3-0.3-0.5-0.4c-1.7-1.6-5,0-4.2,2.4
			c0.4,1.3,0.9,2.5,1.5,3.7c1.3-1,2.6-2,3.9-3c-2-2.3-4.5-4.1-7.7-2.9c-2.7,0.9-4.8,3.5-4.1,6.3c0.3,1.5,2.4,2.4,3.7,1.5
			c2.5-1.8,3.5-4.3,3-7.4c-0.5-2.9-4.7-2-4.9,0.7s1.1,7.2,4.4,7.4c3.7,0.3,4.7-4.5,4.9-7.3c-1.6,0.2-3.3,0.4-4.9,0.7
			c0.4,1.9,0.7,3.8,1.1,5.7c1.5-0.6,3-1.3,4.6-1.9c-1-1.5-2-3.1-2.8-4.7c-1.3-2.5-5.5-0.8-4.6,1.9c0.6,1.6,1.1,3.3,1.7,4.9
			c1.4-0.8,2.8-1.6,4.2-2.4c-1.9-1.9-2.9-4.5-5.1-6.2c-1.5-1.2-3.5-0.8-4.2,1.1c-0.3,1,0.2,2.9-0.2,3.6c0.5-0.4,1-0.8,1.5-1.1
			c-1.1,0.2-2.5,0-3.6,0c-2.2,0-3.3,2.7-1.8,4.3c2.9,3,7.5,4.4,11.2,6.1c0.9,0.4,2.3,0.5,3-0.4c2.7-3.3,3.7-8.1,5.1-12.1
			c0.4-1-0.2-2.3-1.1-2.8c-3-1.6-6.6-2.4-9.8-3.4C56.1,38.6,54.8,43.4,57.8,44.4L57.8,44.4z"/>
	</g>
</g>
<g>
	<g>
		<path class="st0" d="M43.1,56c1.5,2.8,3.5,6.2,4,9.3c0.2-0.8,0.4-1.6,0.6-2.4c-0.9,0.9-3.4,1.1-4.6,1.5c-1.5,0.6-2.9,1.3-4.3,2.2
			c1.2,0.5,2.4,1,3.7,1.5c-0.9-2.7-1.4-5.4-1.6-8.2c-1.6,0.4-3.1,0.8-4.7,1.3c1,1.4,1.9,2.8,2.6,4.4c1.1,2.4,4.5,1,4.7-1.3
			c0.1-1.9,0.3-3.8,0.4-5.6c-1.6,0.2-3.3,0.4-4.9,0.7c1,2.3,1.5,4.8,2.1,7.2c0.6,2.7,5.2,2.2,4.9-0.7c-0.2-2.4-0.4-4.7-0.6-7.1
			c-0.3-3.2-5.2-3.2-5,0c0.1,1.8,0.4,3.6,0.8,5.4c0.7,2.7,5,2.2,4.9-0.7c0-1.2,0-2.3,0.2-3.5c-1.4,0.6-2.8,1.2-4.3,1.8
			c0.6,0.8,1.1,1.5,1.5,2.4c1,2.1,5,1.2,4.7-1.3c-0.3-2.2-0.6-5.6-2.5-7c-0.9-0.7-1.8-0.5-2.8-0.5c-1.7,0.1-3-0.2-4.4-1.1
			c-2-1.2-5,1.4-3.4,3.4c0.9,1.2,1.9,2.4,2.9,3.5c1.6,1.8,5-0.1,4.2-2.4c-0.4-1.2-0.9-2.1-0.5-3.4c-1.4,0.4-2.8,0.7-4.2,1.1
			c1.6,1.4,2.6,3,3.5,4.9c1.3,2.9,5.6,0.4,4.3-2.5c-1-2.3-2.5-4.2-4.3-5.9c-1.4-1.3-3.6-0.7-4.2,1.1c-0.7,2.1-0.3,4,0.5,6
			c1.4-0.8,2.8-1.6,4.2-2.4c-0.7-0.8-1.4-1.6-2.1-2.5c-1.1,1.1-2.3,2.3-3.4,3.4c2.8,1.7,5.1,1.6,8.2,1.7c-0.7-0.4-1.4-0.8-2.2-1.2
			c0.8,1,1,2.5,1.2,3.8c1.6-0.4,3.1-0.8,4.7-1.3c-0.6-1.3-1.4-2.3-2.3-3.4c-1.6-1.9-4-0.1-4.3,1.8c-0.1,1.2-0.2,2.3-0.2,3.5
			c1.6-0.2,3.3-0.4,4.9-0.7c-0.4-1.4-0.6-2.7-0.6-4.1c-1.7,0-3.3,0-5,0c0.2,2.4,0.4,4.7,0.6,7.1c1.6-0.2,3.3-0.4,4.9-0.7
			c-0.5-2.5-1.1-4.9-2.1-7.2c-1.1-2.5-4.7-2.3-4.9,0.7c-0.1,1.9-0.3,3.8-0.4,5.6c1.6-0.4,3.1-0.8,4.7-1.3c-0.7-1.6-1.6-3-2.6-4.4
			c-1.3-1.8-4.8-1.5-4.7,1.3c0.2,3.3,0.8,6.4,1.8,9.5c0.5,1.5,2.3,2.4,3.7,1.5c1.9-1.2,3.9-2,6-2.7c1.6-0.5,3.6-0.9,4.3-2.7
			c0.7-1.7-0.6-3.9-1.2-5.4c-0.9-2.3-2-4.5-3.1-6.7C45.9,50.6,41.6,53.2,43.1,56L43.1,56z"/>
	</g>
</g>
<g>
	<g>
		<path class="st0" d="M23.7,51.7c-3,2.3-4.9,5.6-7.1,8.6c1.6,0.4,3.1,0.8,4.7,1.3c0-0.1,0-0.2,0-0.2c-0.6,0.8-1.2,1.6-1.8,2.4
			c0.1,0,0.2,0,0.3-0.1c-0.9-0.4-1.9-0.8-2.8-1.1c0.9,2,0.7,3.5,2.6,5c1,0.8,1.8,1.3,2.7,2.2c0.6,0.6,1.3,1.1,2.1,1.3
			c1.9,0.4,3.4-0.7,4.3-2.3c1.4-2.3,2.3-4.8,3.8-7.1c-1.6-0.4-3.1-0.8-4.7-1.3c0,0.2,0,0.3,0,0.5c0.2-0.6,0.5-1.2,0.7-1.8
			c-0.1,0.1-0.2,0.3-0.3,0.4c1.4,0.6,2.8,1.2,4.3,1.8c-0.1-1.1-0.1-2.2-0.2-3.3c-0.1-2.2-3.6-3.7-4.7-1.3c-1,2.2-2.1,4.4-3.3,6.5
			c1.6,0.4,3.1,0.8,4.7,1.3c0-1.7,0.3-3.3,0.8-4.9c0.9-3.1-3.9-4.4-4.8-1.3c-0.8,2.5-1.6,4.9-2.5,7.3c1.6,0.2,3.3,0.4,4.9,0.7
			c-0.3-2.9,1-6.1,1.6-8.9c0.6-2.6-3.4-4.6-4.6-1.9c-1,2.3-2,4.7-2.9,7c1.6,0.4,3.2,0.9,4.8,1.3c0.4-1.8,0.7-3.5,1-5.3
			c0.3-2.4-3.7-3.5-4.7-1.3c-0.9,2-1.7,3.9-2.6,5.9c1.5,0.6,3,1.3,4.6,1.9c0.4-2.2,1-4.3,1.6-6.4c0.8-2.7-3.1-4.4-4.6-1.9
			c-0.9,1.5-1.8,3-2.8,4.5c1.5,0.2,3,0.4,4.6,0.6c0,0.1,0,0.1,0,0.2c0.7-3.1-4.1-4.5-4.8-1.3c-0.2,0.9-0.2,1.5,0,2.4
			c0.4,2.2,3.5,2.3,4.6,0.6c1-1.5,1.9-3,2.8-4.5c-1.5-0.6-3-1.3-4.6-1.9c-0.6,2.1-1.2,4.3-1.6,6.4c-0.5,2.6,3.4,4.7,4.6,1.9
			c0.9-2,1.7-3.9,2.6-5.9c-1.6-0.4-3.1-0.8-4.7-1.3c-0.2,1.4-0.5,2.7-0.8,4c-0.8,3.2,3.7,4.3,4.8,1.3c0.8-2,1.5-3.9,2.4-5.8
			c-1.5-0.6-3-1.3-4.6-1.9c-0.8,3.3-2.1,6.8-1.8,10.2c0.2,2.8,3.9,3.3,4.9,0.7c0.9-2.4,1.7-4.9,2.5-7.3c-1.6-0.4-3.2-0.9-4.8-1.3
			c-0.6,2.1-1.1,4.1-1,6.2c0.1,2.4,3.4,3.5,4.7,1.3c1.2-2.1,2.3-4.3,3.3-6.5c-1.6-0.4-3.1-0.8-4.7-1.3c0.1,1.1,0.1,2.2,0.2,3.3
			c0.1,2,2.8,3.5,4.3,1.8c0.7-0.9,1.1-1.5,1-2.7c-0.1-2.5-3.3-3.3-4.7-1.3c-0.9,1.3-1.7,2.7-2.4,4.1c-0.3,0.5-1.2,1.8-1.1,2.4
			c-0.1,0.2-0.2,0.4-0.3,0.6c1.3,0.4,1.8,0.3,1.2-0.2c-0.2-1-2.1-1.6-2.7-2.2c-1.1-1-1-2.5-1.6-3.8c-0.5-1-1.8-1.4-2.8-1.1
			c-0.1,0-0.2,0-0.3,0.1c-1.2,0.2-1.7,1.4-1.8,2.4c0,0.1,0,0.2,0,0.2c-0.3,2.7,3.4,3,4.7,1.3c1.6-2.2,3.1-5.2,5.3-6.8
			C28.7,54.1,26.2,49.7,23.7,51.7L23.7,51.7z"/>
	</g>
</g>
<g>
	<g>
		<path class="st0" d="M18.5,45.5c-1.8,2.3-6.1,2.6-8.7,3.7c1.2,0.5,2.4,1,3.7,1.5c-0.2-1.5-0.5-2.9-0.7-4.4
			c-0.2-1.3-0.8-3.1-0.7-4.4c0.1-0.7-0.1-0.6,0.3-0.9c0.3-0.2,1.5-0.1,1.9-0.2c0.8-0.1,1.6-0.1,2.4-0.2c0.3,0,0.6-0.1,1-0.1
			c0.8,0.1,0.7-0.3-0.3-0.9c1-1,2.1-2.1,3.1-3.1c-5.7-0.9-4.9,7-5.3,10.8c1.6-0.2,3.3-0.4,4.9-0.7c-0.3-1.8-0.7-3.7-1-5.5
			c-0.4-2.5-4.2-2.3-4.8,0c-0.4,1.4-0.6,2.7-0.8,4.1c1.7,0,3.3,0,5,0c0-1.3-0.1-2.7-0.1-4c-0.1-2.7-4.3-3.5-4.9-0.7
			c-0.4,2-0.9,3.9-1.3,5.9c1.6,0.2,3.3,0.4,4.9,0.7c-0.1-2-0.2-3.9-0.3-5.9c-0.1-2.4-3.4-3.6-4.7-1.3c-1.2,2.3-1,5.5-1.3,8
			c1.7,0,3.3,0,5,0c-0.1-2.3-0.4-4.6-0.8-6.8c-0.4-2.4-4.4-2.4-4.8,0c-0.2,1.2-0.5,2.4-0.7,3.6c1.6,0,3.2,0,4.8,0
			c-0.3-1.2-0.6-2.4-1.1-3.5c-1.5,0.6-3,1.3-4.6,1.9c0.2,0.3,0.3,0.5,0.5,0.8c1.5,2.8,5.9,0.3,4.3-2.5c-0.2-0.3-0.3-0.5-0.5-0.8
			c-1.3-2.4-5.6-0.8-4.6,1.9c0.5,1.2,0.8,2.3,1.1,3.5c0.5,2.4,4.4,2.4,4.8,0c0.2-1.2,0.5-2.4,0.7-3.6c-1.6,0-3.2,0-4.8,0
			c0.3,1.8,0.5,3.6,0.6,5.5c0.2,3.3,4.7,3.2,5,0c0.1-1.5-0.1-4.2,0.6-5.5c-1.6-0.4-3.1-0.8-4.7-1.3c0.1,2,0.2,3.9,0.3,5.9
			c0.2,2.7,4.3,3.5,4.9,0.7c0.4-2,0.9-3.9,1.3-5.9c-1.6-0.2-3.3-0.4-4.9-0.7c0,1.3,0.1,2.7,0.1,4c0.1,3.3,4.6,3.1,5,0
			c0.1-1,0.3-1.9,0.6-2.8c-1.6,0-3.2,0-4.8,0c0.3,1.8,0.7,3.7,1,5.5c0.5,3,4.6,1.9,4.9-0.7c0.3-2.4,0.3-5.1,0.9-7.5
			c-0.4,0.5-0.8,1-1.1,1.5c0.2-0.1,0.3-0.2,0.5-0.4c-0.6,0.1-1.3,0.2-1.9,0.3c0.2,0,0.4,0.1,0.6,0.1c1.9,0.3,3.5-1.1,3.1-3.1
			c-0.6-2.5-2.8-2.9-5-2.7c-2.4,0.2-5.7,0-7.9,1.3c-2.1,1.2-2.4,3.5-2.2,5.7c0.4,3.2,1,6.4,1.6,9.5c0.3,1.7,2.4,2.1,3.7,1.5
			c3.9-1.8,7.7-1.8,10.4-5.5C24.7,45.4,20.4,42.9,18.5,45.5L18.5,45.5z"/>
	</g>
</g>
<g>
	<g>
		<path class="st0" d="M52.2,45.2c-2.4-0.2-4.2,0.9-6.1,2.2c-2.3,1.5-4.6,2.8-7.1,3.8c-2.3,0.9-2.4,3.9,0,4.8c0.1,0,0.3,0.1,0.4,0.1
			c-0.5-0.4-1-0.8-1.5-1.1c0.1,0.1,0.2,0.2,0.2,0.3c0.7-1.3,1.4-2.5,2.2-3.8c-0.7,0.1-1.3,0-2-0.2c-3.1-0.8-4.5,4.1-1.3,4.8
			c1.1,0.3,2.2,0.4,3.3,0.4c1.8-0.1,3.3-2.1,2.2-3.8c-0.6-0.9-1.1-1.3-2.1-1.6c0,1.6,0,3.2,0,4.8c2-0.8,3.9-1.6,5.7-2.6
			s4.1-3.3,6.2-3.1C55.4,50.5,55.4,45.5,52.2,45.2L52.2,45.2z"/>
	</g>
</g>
<g>
	<g>
		<path class="st0" d="M66.3,70c-4.6,2.7-4.3,9-1.3,12.9c3.4,4.3,9.4,3.7,12.7-0.5c3.3-4.3,3.8-10.7-1.9-13
			c-5.2-2.1-10.9,0.4-12.7,5.7c-1,3.1,3.8,4.4,4.8,1.3c0.7-2.2,3-3.1,5.2-2.7c1.3,0.3,2.3,0.9,2.2,2.3c-0.1,1.1-0.8,2.4-1.4,3.3
			c-3.7,4.9-8.2-3.1-4.9-5.1C71.6,72.7,69.1,68.4,66.3,70L66.3,70z"/>
	</g>
</g>
<g>
	<g>
		<path class="st0" d="M63.2,66.7c-9.6,2.3-6,14.3-0.7,19.1c5.5,5,18.1,5.7,21.5-2.2c1.6-3.7,1.7-9.1-0.4-12.6
			c-2.7-4.5-6.8-6.3-11.8-7.2c-8.7-1.6-17,6.7-11.8,15.3c1.7,2.8,6,0.2,4.3-2.5c-1.7-2.8,0-7.1,3.2-8c1.7-0.4,4.2,0.2,5.9,0.7
			c5.3,1.7,9.2,7.6,5.4,12.8c-2.5,3.4-8.6,2.9-11.9,0.7c-2.7-1.8-8.1-9.9-2.3-11.3C67.7,70.8,66.3,66,63.2,66.7L63.2,66.7z"/>
	</g>
</g>
<g>
	<g>
		<path class="st0" d="M63.6,73.8c1.3-1.7,3.4-4.3,5.6-5c-0.6-0.1-1.3-0.2-1.9-0.3c0.1,0.1,0.2,0.1,0.3,0.2
			c-0.4-0.7-0.8-1.4-1.2-2.2c0,0.1,0,0.2,0,0.3c0.1,1,0.7,2.2,1.8,2.4c1.4,0.2,2.3,0.5,3.6,1.1c0.8-1.4,1.7-2.9,2.5-4.3
			c-3-1.4-5.7-1.4-8.6,0.1c0.8,1.4,1.7,2.9,2.5,4.3c0.3,0,0.5-0.1,0.8-0.1c-0.4-1.4-0.7-2.8-1.1-4.2c-0.5,0.5-1.1,0.9-1.8,1.1
			c-2.6,1.1-0.7,5.4,1.9,4.6s5.3-0.4,7.2,1.8c2,2.3,3.2,6,0,7.7c-2.8,1.5-0.3,5.8,2.5,4.3c5.4-2.8,5.4-8.7,2.5-13.5
			c-2.8-4.7-8.4-6.7-13.6-5.1c0.6,1.5,1.3,3,1.9,4.6c1.1-0.5,1.9-1.1,2.8-1.9c1.4-1.3,0.7-3.7-1.1-4.2c-1.8-0.5-3.1-0.3-4.7,0.6
			c-2.8,1.6-0.3,5.8,2.5,4.3c1.2-0.7,2.3-0.8,3.5-0.1c2.9,1.3,5.4-2.8,2.5-4.3c-1.5-0.8-3-1.4-4.8-1.6c0.6,0.8,1.2,1.6,1.8,2.4
			c-0.6-7.9-10.4,2.2-12.1,4.3C57.3,73.9,61.6,76.3,63.6,73.8L63.6,73.8z"/>
	</g>
</g>
<g>
	<g>
		<path class="st0" d="M54.3,67.9c1.4,1.3,2.8,2.6,4.3,3.8c2.4,2,5.8-1.1,3.5-3.5c-1.3-1.4-3.3-2.3-3.8-4.3c0,0.4,0,0.9,0,1.3
			c-0.6,0.8-0.6,0.9,0,0.3c0.3-0.2,0.6-0.4,0.9-0.7c0.4-0.3,0.9-0.8,1.4-0.9c-0.4,0-0.9,0-1.3,0c0.5,0.1,1.7,2.5,2,3
			c1.3-1,2.6-2,3.9-3c-1.1-1.3-2.5-2.1-4.1-2.4c-2-0.4-3.4,1.2-3.1,3.1c0.2,1.5,0.7,2.9,1.3,4.3c1.3-1,2.6-2,3.9-3
			c-1.2-1.1-2.3-2.2-3.5-3.3c-2-1.8-5.7,0.7-3.9,3c1,1.3,2.1,2.6,3.3,3.7c2.4,2.2,5.9-1.3,3.5-3.5c-0.9-0.8-1.8-1.7-2.5-2.7
			c-1.3,1-2.6,2-3.9,3c1.2,1.1,2.3,2.2,3.5,3.3c2.2,2.1,5-0.5,3.9-3c-0.4-1-0.6-2-0.8-3.1c-1,1-2.1,2.1-3.1,3.1
			c0.9,0.2,1.3,0.5,1.9,1.1c1.8,2.2,5.4-0.6,3.9-3c-1.1-1.8-2.3-4.6-4.6-5.2c-2.3-0.6-4.1,1.1-5.8,2.4c-2.1,1.5-2.3,3.2-1.1,5.5
			c1.1,2,2.9,3.1,4.4,4.7c1.2-1.2,2.4-2.4,3.5-3.5c-1.5-1.2-2.9-2.5-4.3-3.8C55.5,62.1,52,65.6,54.3,67.9L54.3,67.9z"/>
	</g>
</g>
<g>
	<g>
		<path class="st0" d="M70.5,59.9c0,1.5-0.3,2.9-0.8,4.4c1.6,0.4,3.2,0.9,4.8,1.3c0.2-0.9,0.3-1.9,0.5-2.8c0.2-0.7,0.2-1.8,0.6-2.4
			c-0.7,0.4-1.4,0.8-2.2,1.2c0.7,0,1.6,0.3,2.2,0.5c0.8,0.2,1.7,0.3,2.5,0.5c-0.4-0.2-0.7-0.4-1.1-0.6c0.1,0.1,0.2,0.2,0.3,0.2
			c-0.2-0.4-0.4-0.7-0.6-1.1c0,0.1,0,0.3,0.1,0.4c0-0.4,0-0.9,0-1.3c-0.5,1.8-1.6,3.6-2.8,5.1c1.5,0.6,3,1.3,4.6,1.9
			c0.5-2.1,1.4-4.8-0.8-6.2c-2-1.3-4.4-0.2-5,2c1.6,0.2,3.3,0.4,4.9,0.7c0-0.8,0.4-1.5,0.4-2.4c-0.1-2.4-3.4-3.5-4.7-1.3
			c-0.8,1.4-2,3-1.4,4.7c0.3,0.8,0.9,1.6,1.7,1.7c0.8,0.1,1.4,0.2,2.2-0.2c0.2-0.1,0.4-0.2,0.6-0.3c0.3-0.1,0.2-0.1-0.4-0.1
			c-0.3-0.3-0.6-0.6-0.9-0.9c-0.1-0.2-0.2,0.1-0.4,0.5c-1.7,2.7,2.6,5.3,4.3,2.5c1.1-1.8,1.6-4.4,0-6.1c-1.7-1.7-3.9-0.8-5.7,0
			c0.6-0.1,1.3-0.2,1.9-0.3c-0.1,0-0.2,0-0.3,0c0.6,0.6,1.2,1.2,1.7,1.7c0-0.1-0.1-0.2-0.1-0.3c0,0.4,0,0.9,0,1.3
			c0.2-0.6,0.7-1.3,1-1.9c-1.6-0.4-3.1-0.8-4.7-1.3c0,0.8-0.5,1.5-0.4,2.4c0.2,2.7,4.2,3.5,4.9,0.7c0-0.1,0.1-0.2,0.1-0.3
			c-0.2,0.4-0.4,0.7-0.6,1.1c0.1-0.1,0.2-0.2,0.2-0.3c-0.4,0.2-0.7,0.4-1.1,0.6l0,0c-0.4-0.1-0.8-0.2-1.3-0.3
			c0.1,0.1,0.2,0.1,0.3,0.2c-0.3-0.3-0.6-0.6-0.9-0.9c0.1,0.1,0.1,0.2,0.2,0.3c-0.1-0.4-0.2-0.8-0.3-1.3c0.1,0.7-0.3,1.7-0.4,2.4
			c-0.6,2.9,2.9,4.2,4.6,1.9c1.3-1.7,2.3-3.6,3.1-5.6c0.4-1.2,0.4-2.5-0.5-3.4c-0.8-0.8-1.8-1-2.8-1.2c-1.8-0.4-4.9-1.7-6.4-0.1
			c-0.8,0.8-1,2-1.2,3c-0.3,1.3-0.6,2.6-0.8,3.9c-0.5,3.2,3.7,4.4,4.8,1.3c0.6-1.8,1-3.8,1-5.7C75.6,56.7,70.6,56.7,70.5,59.9
			L70.5,59.9z"/>
	</g>
</g>
<g>
	<g>
		<path class="st0" d="M82.2,74c1.3-0.2,2.7-0.6,4-0.7s2.4,0.2,3.6-0.6c-1.3-0.7-2.5-1.4-3.8-2.2c-0.2,2.1,0.9,4,0.8,6.1
			c0.8-0.8,1.7-1.7,2.5-2.5c-1.1,0-2.2-0.4-3.4-0.5c-1.2-0.1-2.2,0.2-3.2,0.6c-1.6,0.7-1.4,2.8-0.5,3.9c1,1.2,2.8,1.1,3.9,0.2
			c1-0.9,1.5-2.3,1.8-3.5c0.9-3.1-3.8-4.3-4.8-1.3c-0.2,0.6-0.4,1.2-0.6,1.8c-1,2.7,3.2,4.4,4.6,1.9c0.6-1.1,1.1-2.3,1.5-3.5
			c0.5-1.8-1.3-3.6-3.1-3.1c-1.4,0.4-2.7,1.2-3.8,2.2c-2.3,2.2,1.2,5.8,3.5,3.5c0.5-0.5,0.9-0.7,1.6-0.9c-1-1-2.1-2.1-3.1-3.1
			c-0.2,0.8-0.6,1.6-1,2.3c1.5,0.6,3,1.3,4.6,1.9c0.2-0.6,0.4-1.2,0.6-1.8c-1.6-0.4-3.2-0.9-4.8-1.3c-0.1,0.4-0.2,1-0.5,1.3
			c0.6-0.2,1.2-0.5,1.8-0.7c-0.1,0-0.1,0-0.2,0c0.6,0.2,1.2,0.5,1.8,0.7c0-0.1-0.1-0.1-0.1-0.2c-0.2,1.3-0.3,2.6-0.5,3.9
			c0.4-0.2,1.2,0.2,1.5,0.2c0.8,0.2,1.7,0.3,2.5,0.3c1.4,0,2.5-1.1,2.5-2.5c0-2.1-1-4-0.8-6.1c0.2-1.8-2.3-3.2-3.8-2.2
			c0.3-0.2-0.6-0.1-0.8-0.1c-0.6,0-1.3,0.1-1.9,0.2c-1.2,0.2-2.4,0.4-3.6,0.6c-1.3,0.2-2.1,1.9-1.7,3.1C79.5,73.7,80.9,74.2,82.2,74
			L82.2,74z"/>
	</g>
</g>
<g>
	<g>
		<path class="st0" d="M82.5,86.8c0.1,0,0.2-0.1,0.3-0.1c-0.4,0-0.9,0-1.3,0c0.5,0.1,1,0.3,1.5,0.6c0.3,0.1,0.5,0.3,0.7,0.4
			c0.2,0.2,0.6,0.6,0.3,0.1c-0.1-0.4-0.2-0.8-0.3-1.3c0,0.1,0,0.2,0,0.3c0.1-0.4,0.2-0.8,0.3-1.3c-0.5,1-1.9,2-2.7,2.9
			c1.2,0,2.4,0,3.5,0c-1-1-2-1.9-2.9-2.9c-2.3-2.3-5.8,1.2-3.5,3.5c0.7,0.7,1.5,1.2,2.5,1.5c1.8,0.6,3.6-1.3,3.1-3.1
			c-0.4-1.4-1.3-2.5-2.6-3.3c-1.2-0.7-2.7-0.3-3.4,0.9c-0.7,1.3-0.2,2.6,0.9,3.4l0.1,0.1c1-1,2.1-2.1,3.1-3.1
			c-0.1,0-0.1-0.1-0.1-0.1c-2.3-2.3-5.8,1.3-3.5,3.5c0.7,0.7,1.4,1.1,2.3,1.4c1.7,0.6,3.7-1.4,3.1-3.1c-0.5-1.3-1.2-2.3-2.4-3.1
			c-0.8,1.4-1.7,2.9-2.5,4.3c0.7,0.4,0.2,0,0.3,0.3c1-1,2.1-2.1,3.1-3.1c-0.2-0.1,0.2,0.3-0.3-0.2c-1.2,1.2-2.4,2.4-3.5,3.5
			c1,1,2,1.9,2.9,2.9c1,1,2.6,1,3.5,0c1.7-1.7,5-4.1,3.4-6.8c-0.6-1.1-1.9-1.8-3-2.3c-1.2-0.6-2.7-1.3-4.1-0.9
			C78.1,83,79.4,87.8,82.5,86.8L82.5,86.8z"/>
	</g>
</g>
<g>
	<g>
		<path class="st0" d="M71.6,89.8c0.2,1,0.5,2,0.7,3c0.6-1,1.2-2.1,1.7-3.1c0.3-0.1,0,0-0.1,0c0.2,0.1,0,0-0.1-0.1
			c-0.4-0.1-0.8-0.2-1.2-0.3c-0.5-0.1-1-0.2-1.4-0.2c-0.3,0-0.6,0.1-0.9,0.1c-0.1,0-0.7,0.1-0.1,0.1c0.6,0.2,1.2,0.5,1.8,0.7
			l-0.1-0.1c0.2,0.6,0.5,1.2,0.7,1.8c0,0.2,0,0.2,0.1-0.2c0.1-0.2,0.1-0.5,0.2-0.7c0.1-0.5,0.2-0.9,0.3-1.4
			c-1.6-0.2-3.3-0.4-4.9-0.7c0,0.3,0.1,0.7,0,1c1.6,0.2,3.3,0.4,4.9,0.7C73.1,89.7,73,89,73,88.3c-0.2-1.3-1-2.5-2.5-2.5
			c-1.2,0-2.7,1.1-2.5,2.5c0.1,0.7,0.2,1.4,0.2,2.1c0.1,1.2,0.8,2.3,2.2,2.5c1.1,0.1,2.5-0.5,2.7-1.8c0.1-0.8,0.2-1.6,0.2-2.4
			c-0.1-1.2-0.9-2.3-2.2-2.5c-1.2-0.1-2.4,0.6-2.7,1.8c-0.3,1.1-0.7,2.3-0.7,3.4c0,1.6,1.2,2.8,2.8,2.8c0.3,0,0.6-0.1,0.9-0.2
			c0.2,0,0.3-0.1,0.1,0c-0.3,0,0.1,0,0.2,0.1c0.2,0,0.3,0.1,0.5,0.1c1.1,0.3,2.1,0.4,3.3,0.2c1.4-0.3,2-1.8,1.7-3.1
			c-0.2-1-0.5-2-0.7-3c-0.3-1.3-1.8-2.1-3.1-1.7C72,87.1,71.3,88.5,71.6,89.8L71.6,89.8z"/>
	</g>
</g>
<g>
	<g>
		<path class="st0" d="M58.8,76.8c-1.5,0.6-3.1,1.3-4.6,1.9c-1.4,0.6-2.4,2.2-1.5,3.7c0.6,0.9,1.1,1.8,1.8,2.6
			c0.2,0.3,1.4,1.3,1.3,1.6c-0.5,2.7,3,4.4,4.6,1.9c0.7-1.1,1.5-2.1,2.4-3c-1.2-1.2-2.4-2.4-3.5-3.5c-0.6,0.6-1.2,1.2-1.8,1.8
			c1.4,0.6,2.8,1.2,4.3,1.8c0-0.8,0.3-1.5,0.6-2.2c1-2.1-1.1-4.9-3.4-3.4c-0.9,0.6-1.8,1.3-2.5,2.1c1.4,0.8,2.8,1.6,4.2,2.4
			c0.1-0.5,0.3-0.8,0.5-1.2c1.5-2.6-1.8-4.7-3.9-3c-0.6,0.5-1.1,1.1-1.6,1.8c-1.8,2.7,2.5,5.2,4.3,2.5c0.2-0.3,0.5-0.5,0.8-0.8
			c-1.3-1-2.6-2-3.9-3c-0.4,0.8-0.8,1.6-1,2.4c-0.8,2.4,2.5,4.2,4.2,2.4c0.5-0.5,0.9-0.9,1.5-1.3c-1.1-1.1-2.3-2.3-3.4-3.4
			c-0.7,1.5-1.3,3-1.3,4.7c0,2.1,2.8,3.3,4.3,1.8c0.6-0.6,1.2-1.2,1.8-1.8c2.2-2.3-1.2-5.8-3.5-3.5C58,83.2,56.9,84.6,56,86
			c1.5,0.6,3,1.3,4.6,1.9c0.3-1.7,0.1-3.2-0.9-4.5c-0.9-1.2-1.9-2.3-2.7-3.6c-0.5,1.2-1,2.4-1.5,3.7c1.5-0.6,3.1-1.3,4.6-1.9
			c1.2-0.5,2.1-1.7,1.7-3.1C61.5,77.4,60,76.3,58.8,76.8L58.8,76.8z"/>
	</g>
</g>
<g>
	<g>
		<path class="st0" d="M40.5,16.7c0.9,0,1.9,0.1,2.8,0.1c1.3,0.1,2.6-1.2,2.5-2.5c-0.1-1.4-1.1-2.4-2.5-2.5c-0.9,0-1.9-0.1-2.8-0.1
			c-1.3-0.1-2.6,1.2-2.5,2.5C38,15.6,39.1,16.6,40.5,16.7L40.5,16.7z"/>
	</g>
</g>
<g>
	<g>
		<path class="st0" d="M42.2,13.5c0,0.3,0,0.6,0,0.8c0,0.1,0,0.2,0,0.4c0,0.4,0.1-0.6,0,0c-0.2,1.2,0.2,2.4,1.4,2.9
			c1.1,0.4,2.6,0.1,3.1-1c0.2-0.5,0.4-0.9,0.7-1.4c0.6-1.2,0.4-2.8-0.9-3.4c-1.1-0.6-2.8-0.4-3.4,0.9c-0.2,0.5-0.4,0.9-0.7,1.4
			c1.5,0.6,3,1.3,4.6,1.9c0.1-0.8,0.2-1.7,0.2-2.5c-0.1-1.3-1.1-2.6-2.5-2.5C43.4,11.1,42.2,12.1,42.2,13.5L42.2,13.5z"/>
	</g>
</g>
</svg>
