<?xml version="1.0" encoding="utf-8"?>
<!-- Generator: Adobe Illustrator 19.1.0, SVG Export Plug-In . SVG Version: 6.00 Build 0)  -->
<svg version="1.1" xmlns="http://www.w3.org/2000/svg" xmlns:xlink="http://www.w3.org/1999/xlink" x="0px" y="0px"
	 viewBox="0 0 100 100" style="enable-background:new 0 0 100 100;" xml:space="preserve">
<style type="text/css">
	.st0{display:none;}
	.st1{fill:#BC5817;}
</style>
<g id="Calque_1" class="st0">
	
		<image style="display:inline;overflow:visible;" width="873" height="837" xlink:href="81472C95.jpg"  transform="matrix(0.1207 0 0 0.1207 -3.172 0)">
	</image>
</g>
<g id="Calque_2" class="st0">
</g>
<g id="Calque_3">
	<g>
		<g>
			<path class="st1" d="M44.4,9.4c-11.7,0.7-23.9,6.1-28.1,17.8c-4.1,11.5,1.6,22.6,12.8,26.6c12.4,4.4,27.8,0.9,37.2-8.2
				c8.8-8.5,9.8-22.1,0.9-31.1c-9.6-9.7-23.5-9.6-36-7.8c-3.2,0.5-1.8,5.3,1.3,4.8c10.5-1.5,22.3-1.8,30.6,6
				C75,28.5,65.6,43.1,53.5,48c-11,4.5-31.8,4.1-33.4-11.5c-1.4-13.9,12.3-21.4,24.3-22.2C47.6,14.2,47.6,9.2,44.4,9.4L44.4,9.4z"/>
		</g>
	</g>
	<g>
		<g>
			<path class="st1" d="M12.1,92.3c0.7-18.9,20.2-37.1,39.1-37.1c20.2,0.1,32.2,19,39,35.6c1.2,2.9,6,1.6,4.8-1.3
				c-7.9-19.2-22.1-40.3-45.6-39.2c-20.9,1-41.6,20.9-42.3,42C7,95.5,12,95.5,12.1,92.3L12.1,92.3z"/>
		</g>
	</g>
</g>
</svg>
